ply
format ascii 1.0
comment File exported by Rhinoceros Version 5.0
element vertex 298
property float x
property float y
property float z
property float nx
property float ny
property float nz
property uchar red
property uchar green
property uchar blue
element face 462
property list uchar uint vertex_index
element material 1
property uchar ambient_red
property uchar ambient_green
property uchar ambient_blue
property uchar ambient_alpha
property uchar diffuse_red
property uchar diffuse_green
property uchar diffuse_blue
property uchar diffuse_alpha
property uchar emissive_red
property uchar emissive_green
property uchar emissive_blue
property uchar emissive_alpha
property uchar specular_red
property uchar specular_green
property uchar specular_blue
property uchar specular_alpha
property double shine
property double transparency
end_header
14.285086 -41.684578 -0.004198 0.576887 0.815745 -0.041980 229 229 229
9.450815 -38.265823 -0.004198 0.576887 0.815745 -0.041980 229 229 229
12.378110 -40.041241 5.723086 0.576886 0.815745 -0.041980 184 184 184
4.616544 -34.847076 -0.004198 0.576887 0.815745 -0.041980 229 229 229
10.487580 -38.412601 11.460061 0.741360 0.668855 0.054931 229 229 229
0.848414 -31.800772 7.409512 0.576887 0.815745 -0.041980 229 229 229
8.942447 -37.135036 16.188658 0.943867 -0.045147 0.327227 229 229 229
1.035613 -31.536062 15.125822 0.576887 0.815745 -0.041980 243 243 243
7.357642 -35.834229 20.897377 0.749651 -0.526718 0.400738 229 229 229
-0.217727 -31.428326 -0.004198 0.576887 0.815745 -0.041980 229 229 229
5.805140 -34.387711 25.575041 0.878486 0.448841 0.163718 184 184 184
-0.459294 -29.710541 30.085300 0.569495 0.797956 -0.197336 229 229 229
4.169644 -33.178169 30.287369 0.177359 -0.945434 0.273310 139 139 139
-5.899681 -26.234400 22.842131 0.576887 0.815745 -0.041980 229 229 229
-5.051998 -28.009579 -0.004198 0.576887 0.815745 -0.041980 184 184 184
-6.274079 -26.763813 7.409512 0.576887 0.815745 -0.041980 229 229 229
-5.240530 -26.577518 29.930731 -0.561340 -0.804768 -0.192993 229 229 229
-6.086879 -26.499105 15.125822 0.576887 0.815745 -0.041979 229 229 229
-9.886270 -24.590832 -0.004198 0.576887 0.815745 -0.041980 184 184 184
-9.907522 -23.282925 29.768402 -0.549741 -0.791774 -0.266231 229 229 229
-13.396571 -21.726858 7.409512 0.576887 0.815745 -0.041980 184 184 184
-13.209373 -21.462149 15.125821 0.576887 0.815745 -0.041980 184 184 184
-14.720540 -21.172083 -0.004198 0.576887 0.815745 -0.041980 184 184 184
-14.463750 -19.830660 29.620291 0.569495 0.797956 -0.197336 229 229 229
-20.519066 -16.689901 7.409512 0.576887 0.815745 -0.041980 184 184 184
-19.554811 -17.753332 -0.004198 0.576887 0.815745 -0.041980 184 184 184
-20.331867 -16.425194 15.125821 0.576887 0.815745 -0.041980 184 184 184
-19.244986 -16.697638 29.465719 -0.561340 -0.804768 -0.192992 229 229 229
-24.389084 -14.334584 -0.004198 0.576887 0.815745 -0.041979 184 184 184
-23.800056 -13.244072 29.310282 0.569495 0.797956 -0.197335 229 229 229
-27.641560 -11.652946 7.409512 0.576887 0.815745 -0.041979 184 184 184
-27.454361 -11.388238 15.125821 0.576887 0.815745 -0.041980 184 184 184
-29.223354 -10.915836 -0.004198 0.576887 0.815745 -0.041979 184 184 184
-28.582150 -10.111913 29.163376 -0.569966 -0.813388 -0.116355 229 229 229
-34.764050 -6.615991 7.409512 0.576887 0.815745 -0.041980 184 184 184
-34.057625 -7.497088 -0.004198 0.576887 0.815745 -0.041980 184 184 184
-34.576851 -6.351282 15.125821 0.576887 0.815745 -0.041980 184 184 184
-33.135815 -6.656354 29.007935 0.574920 0.809250 -0.120752 229 229 229
-38.891899 -4.078340 -0.004198 0.576887 0.815745 -0.041979 184 184 184
-39.955105 -2.138098 23.087807 0.576887 0.815745 -0.041980 139 139 139
-37.859371 -3.445731 28.765041 0.020885 -0.017445 -0.999630 184 184 184
-42.106438 -0.913784 17.314804 0.576887 0.815745 -0.041980 184 184 184
-44.257774 0.310529 11.541803 0.576887 0.815745 -0.041980 184 184 184
-43.726170 -0.659592 -0.004198 0.576887 0.815745 -0.041979 184 184 184
-46.409107 1.534843 5.768804 0.576887 0.815745 -0.041979 184 184 184
-48.560436 2.759157 -0.004198 0.576887 0.815745 -0.041979 184 184 184
-29.061411 -11.001848 55.990753 -0.385313 -0.901277 0.198075 18 18 18
-23.770166 -12.474475 56.376221 -0.275971 -0.916368 0.290016 7 7 7
-28.390133 -9.914751 61.656227 -0.276278 -0.937247 0.212693 7 7 7
-18.489773 -13.944321 56.756306 -0.275148 -0.903661 0.328163 7 7 7
-20.616522 -11.752440 63.655834 -0.276278 -0.937247 0.212693 7 7 7
-13.209476 -15.415628 57.132030 -0.275293 -0.905566 0.322745 7 7 7
-27.729761 -8.824057 67.320236 -0.276278 -0.937247 0.212693 7 7 7
13.192011 -22.772297 59.010120 -0.275971 -0.916368 0.290016 0 0 0
18.541540 -24.237608 59.387402 0.416211 -0.858313 0.300112 18 18 18
19.137989 -23.146015 65.088341 -0.276278 -0.937247 0.212693 0 0 0
-11.634081 -12.510895 71.981384 -0.276278 -0.937247 0.212693 18 18 18
-7.929232 -16.887827 57.505035 -0.275971 -0.916368 0.290016 7 7 7
-2.648886 -18.358326 57.883221 -0.275615 -0.910199 0.309152 7 7 7
-3.675515 -14.960413 71.525185 -0.276278 -0.937247 0.212693 18 18 18
7.911767 -21.300098 58.637115 -0.275293 -0.905566 0.322745 7 7 7
12.241615 -19.859451 70.612770 -0.276278 -0.937247 0.212693 7 7 7
2.631425 -19.829445 58.259491 -0.275615 -0.910199 0.309152 7 7 7
4.283050 -17.409931 71.068977 -0.276278 -0.937247 0.212693 18 18 18
-19.592648 -10.061377 72.437592 -0.276278 -0.937247 0.212693 18 18 18
-27.069386 -7.733363 72.984238 -0.276278 -0.937247 0.212693 18 18 18
19.803688 -22.046526 70.798027 -0.276278 -0.937247 0.212693 7 7 7
-26.409012 -6.642668 78.648254 -0.276278 -0.937247 0.212693 45 45 45
20.469387 -20.947033 76.507706 -0.276278 -0.937247 0.212693 18 18 18
-18.568771 -8.370311 81.219345 -0.276278 -0.937247 0.212693 92 92 92
13.265490 -18.168385 79.394524 -0.276278 -0.937247 0.212693 45 45 45
5.306924 -15.718866 79.850731 -0.276278 -0.937247 0.212693 45 45 45
-2.651640 -13.269348 80.306938 -0.276278 -0.937247 0.212693 45 45 45
-10.610206 -10.819830 80.763138 -0.276278 -0.937247 0.212693 92 92 92
-25.748638 -5.551974 84.312271 -0.276278 -0.937247 0.212693 92 92 92
21.135084 -19.847546 82.217392 -0.276278 -0.937247 0.212693 92 92 92
14.289365 -16.477322 88.176285 -0.276278 -0.937247 0.212693 92 92 92
-17.544895 -6.679246 90.001106 -0.276278 -0.937247 0.212693 139 139 139
6.330800 -14.027802 88.632492 -0.276278 -0.937247 0.212693 139 139 139
-9.586330 -9.128765 89.544899 -0.276277 -0.937247 0.212693 139 139 139
-1.627765 -11.578283 89.088692 -0.276278 -0.937247 0.212693 139 139 139
-25.088264 -4.461280 89.976273 -0.276278 -0.937247 0.212693 139 139 139
21.800785 -18.748058 87.927078 -0.276278 -0.937247 0.212693 92 92 92
-24.427891 -3.370586 95.640289 -0.276278 -0.937247 0.212693 184 184 184
22.466482 -17.648569 93.636765 -0.276278 -0.937247 0.212693 139 139 139
15.313240 -14.786255 96.958038 -0.276278 -0.937247 0.212693 139 139 139
-0.603890 -9.887218 97.870445 -0.276278 -0.937247 0.212693 139 139 139
-8.562455 -7.437700 98.326653 -0.276278 -0.937247 0.212693 139 139 139
7.354675 -12.336737 97.414246 -0.276278 -0.937247 0.212693 139 139 139
23.132181 -16.549080 99.346436 -0.276278 -0.937247 0.212693 184 184 184
-18.260572 -3.376696 103.624390 -0.276278 -0.937247 0.212693 184 184 184
-23.767517 -2.279892 101.304291 -0.276278 -0.937247 0.212693 184 184 184
-12.753630 -4.473499 105.944496 -0.276278 -0.937247 0.212693 184 184 184
16.337116 -13.095190 105.739792 -0.276278 -0.937247 0.212693 184 184 184
-7.246686 -5.570302 108.264587 -0.276277 -0.937247 0.212693 184 184 184
8.378551 -10.645672 106.196007 -0.276278 -0.937247 0.212693 184 184 184
23.797882 -15.449590 105.056129 -0.276278 -0.937247 0.212693 184 184 184
-1.739742 -6.667106 110.584679 -0.276278 -0.937247 0.212693 184 184 184
3.767202 -7.763909 112.904770 -0.276278 -0.937247 0.212693 229 229 229
24.463581 -14.350101 110.765793 -0.276278 -0.937247 0.212693 229 229 229
9.274145 -8.860712 115.224876 -0.276278 -0.937247 0.212693 229 229 229
14.781088 -9.957517 117.544968 -0.276278 -0.937247 0.212693 229 229 229
25.129276 -13.250612 116.475487 -0.276278 -0.937247 0.212693 229 229 229
20.288034 -11.054319 119.865074 -0.276278 -0.937247 0.212693 229 229 229
25.794977 -12.151123 122.185165 -0.276278 -0.937247 0.212693 229 229 229
3.046138 38.329708 19.054728 0.842716 0.538359 0.000000 184 184 184
6.203938 33.386665 22.324818 0.842716 0.538359 0.000000 139 139 139
4.482136 36.081882 14.291046 0.842716 0.538359 0.000000 184 184 184
9.361740 28.443628 25.594910 0.842716 0.538359 0.000000 92 92 92
12.512903 23.509459 28.871368 0.776334 0.627095 0.063689 0 0 0
13.969752 21.230511 24.054167 0.842716 0.538359 0.000000 45 45 45
9.912143 27.582058 16.896255 0.842716 0.538359 0.000000 139 139 139
5.918133 33.834053 9.527364 0.842716 0.538359 0.000000 184 184 184
15.419965 18.960434 19.243334 0.842716 0.538359 0.000000 139 139 139
12.133473 24.104916 9.527363 0.842716 0.538359 0.000000 184 184 184
7.354131 31.586227 4.763682 0.842716 0.538359 0.000000 184 184 184
16.870176 16.690357 14.432500 0.842716 0.538359 0.000000 184 184 184
11.897799 24.473831 0.000000 0.842716 0.538359 0.000000 184 184 184
8.790129 29.338398 0.000000 0.842716 0.538359 0.000000 184 184 184
18.320389 14.420282 9.621667 0.842716 0.538359 0.000000 184 184 184
15.005470 19.609264 0.000000 0.842716 0.538359 0.000000 184 184 184
18.113140 14.744696 0.000000 0.842716 0.538359 0.000000 184 184 184
19.770599 12.150206 4.810833 0.842716 0.538359 0.000000 184 184 184
21.220814 9.880129 0.000000 0.842716 0.538359 0.000000 229 229 229
15.737462 18.459000 29.042566 0.826463 0.519385 -0.217249 0 0 0
18.957006 13.419310 29.241856 0.826464 0.519385 -0.217249 7 7 7
21.758627 9.038256 14.402060 0.842716 0.538359 0.000000 184 184 184
21.621218 9.253351 22.061321 0.842716 0.538359 0.000000 184 184 184
22.175732 8.378927 29.436825 0.818273 0.512445 -0.260440 45 45 45
24.807617 4.265550 0.000000 0.842716 0.538359 0.000000 229 229 229
26.493551 1.626484 7.027383 0.842716 0.538359 0.000000 184 184 184
25.396097 3.339931 29.640436 0.826463 0.519385 -0.217249 92 92 92
26.218725 2.056674 22.345911 0.842716 0.538359 0.000000 184 184 184
26.356140 1.841579 14.686647 0.842716 0.538359 0.000000 184 184 184
28.394421 -1.349030 0.000000 0.842716 0.538359 0.000000 229 229 229
28.614822 -1.700453 29.835407 0.818273 0.512445 -0.260440 139 139 139
32.596256 -7.926334 6.052007 0.842716 0.538359 0.000000 184 184 184
31.981228 -6.963609 0.000000 0.842716 0.538359 0.000000 229 229 229
33.211281 -8.889061 12.104013 0.842716 0.538359 0.000000 184 184 184
33.826305 -9.851788 18.156017 0.842716 0.538359 0.000000 184 184 184
31.835842 -6.738857 30.043381 0.833017 0.525297 -0.173627 184 184 184
34.441330 -10.814514 24.208027 0.842716 0.538359 0.000000 184 184 184
35.054729 -11.779139 30.238306 0.826463 0.519385 -0.217249 184 184 184
33.751045 -6.601552 33.669502 0.770689 0.475574 -0.424108 139 139 139
32.452934 -1.419585 37.121380 0.770689 0.475574 -0.424108 18 18 18
27.420498 7.731237 38.270100 0.712419 0.700268 0.045647 0 0 0
31.136372 3.795360 40.624516 0.586156 0.805354 0.088460 7 7 7
23.688381 11.679899 35.929539 0.676194 0.723037 0.141352 0 0 0
19.959883 15.626285 33.579399 0.676194 0.723037 0.141351 0 0 0
16.225101 19.574514 31.242336 0.613342 0.741486 0.272046 0 0 0
-4.413187 20.210766 40.650421 0.393183 0.851262 0.347506 229 229 229
0.663280 17.867912 40.645412 0.400337 0.866750 0.297446 229 229 229
-0.198757 21.024776 37.743172 0.318042 0.688578 0.651697 184 184 184
4.023187 21.855053 34.805504 0.318043 0.688578 0.651697 92 92 92
5.738317 15.521962 40.650421 0.393183 0.851262 0.347506 229 229 229
8.245131 22.685329 31.867834 0.318042 0.688578 0.651697 7 7 7
10.813242 13.175772 40.655327 0.384929 0.833392 0.396594 184 184 184
15.889819 10.833158 40.650421 0.393183 0.851262 0.347506 184 184 184
20.965572 8.488754 40.650421 0.393183 0.851262 0.347506 184 184 184
26.042292 6.146452 40.643394 0.402878 0.872253 0.277244 92 92 92
-4.410573 20.216425 45.192207 0.419316 0.907840 0.000000 243 243 243
-4.410577 20.216425 49.768593 0.419280 0.907856 -0.001565 243 243 243
0.665175 17.872023 49.627823 0.419280 0.907856 -0.001565 243 243 243
5.740926 15.527620 49.487053 0.419280 0.907856 -0.001565 243 243 243
10.816678 13.183218 49.346279 0.419280 0.907856 -0.001565 251 251 251
15.892428 10.838816 49.205544 0.419287 0.907853 -0.001252 251 251 251
20.968182 8.494413 49.064732 0.419280 0.907856 -0.001565 243 243 243
26.043934 6.150012 48.923958 0.419280 0.907856 -0.001565 139 139 139
31.158960 3.771790 48.796028 0.812037 0.569656 0.126838 7 7 7
31.970753 3.517173 82.496559 0.780852 0.624558 -0.014055 184 184 184
26.858837 5.889905 82.638412 0.419242 0.907869 -0.003129 184 184 184
32.074635 3.500803 88.291611 0.419242 0.907869 -0.003129 229 229 229
1.480082 17.611917 83.342285 0.419242 0.907869 -0.003129 229 229 229
-3.595669 19.956318 83.483055 0.419242 0.907869 -0.003129 229 229 229
-3.455624 19.911619 89.277023 0.419242 0.907869 -0.003129 229 229 229
21.783087 8.234308 82.779190 0.419242 0.907869 -0.003129 184 184 184
25.243385 6.664833 91.032135 0.419242 0.907869 -0.003129 229 229 229
6.555833 15.267515 83.201500 0.419242 0.907869 -0.003129 229 229 229
3.498866 16.708252 91.635201 0.419242 0.907869 -0.003129 229 229 229
16.707336 10.578711 82.919960 0.419242 0.907869 -0.003129 229 229 229
17.995213 10.012640 91.233147 0.419242 0.907869 -0.003129 229 229 229
10.747039 13.360446 91.434174 0.419242 0.907869 -0.003129 229 229 229
11.631586 12.923113 83.060730 0.419242 0.907869 -0.003129 229 229 229
32.214680 3.456103 94.085587 0.419242 0.907869 -0.003129 229 229 229
-3.315579 19.866919 95.070992 0.419242 0.907869 -0.003129 229 229 229
3.713135 16.639860 100.499977 0.419242 0.907869 -0.003129 229 229 229
25.457653 6.596442 99.896896 0.419242 0.907869 -0.003129 229 229 229
10.961308 13.292055 100.298950 0.419242 0.907869 -0.003129 229 229 229
18.209482 9.944248 100.097923 0.419242 0.907869 -0.003129 229 229 229
-3.175534 19.822218 100.864967 0.419242 0.907869 -0.003129 229 229 229
32.354729 3.411403 99.879555 0.419242 0.907869 -0.003129 229 229 229
-3.035489 19.777519 106.658920 0.419242 0.907869 -0.003129 229 229 229
32.494774 3.366703 105.673523 0.419242 0.907869 -0.003129 229 229 229
25.671925 6.528050 108.761673 0.419242 0.907869 -0.003129 229 229 229
3.927404 16.571468 109.364731 0.419242 0.907869 -0.003129 229 229 229
11.175577 13.223663 109.163719 0.419242 0.907869 -0.003129 229 229 229
18.423752 9.875856 108.962692 0.419242 0.907869 -0.003129 229 229 229
32.634819 3.322002 111.467484 0.419242 0.907869 -0.003129 229 229 229
-2.895443 19.732817 112.452896 0.419242 0.907869 -0.003129 229 229 229
25.886194 6.459659 117.626450 0.419242 0.907869 -0.003129 229 229 229
4.141674 16.503078 118.229515 0.419242 0.907869 -0.003129 229 229 229
18.638020 9.807466 117.827477 0.419242 0.907869 -0.003129 229 229 229
11.389847 13.155272 118.028488 0.419242 0.907869 -0.003129 229 229 229
32.774860 3.277302 117.261459 0.419242 0.907869 -0.003129 229 229 229
-2.755398 19.688118 118.246864 0.419242 0.907869 -0.003129 229 229 229
-2.615353 19.643417 124.040833 0.419242 0.907869 -0.003129 229 229 229
32.914906 3.232601 123.055435 0.419242 0.907869 -0.003129 229 229 229
26.100460 6.391267 126.491226 0.419242 0.907869 -0.003129 229 229 229
4.355943 16.434687 127.094284 0.419242 0.907869 -0.003129 229 229 229
18.852291 9.739073 126.692238 0.419242 0.907869 -0.003129 229 229 229
11.604116 13.086881 126.893265 0.419242 0.907869 -0.003129 229 229 229
33.054955 3.187901 128.849396 0.419242 0.907869 -0.003129 229 229 229
-2.475307 19.598717 129.834808 0.419242 0.907869 -0.003129 229 229 229
23.043493 7.832006 134.924896 0.419242 0.907869 -0.003129 184 184 184
7.816240 14.865213 135.347229 0.419242 0.907869 -0.003129 184 184 184
28.119244 5.487603 134.784134 0.419242 0.907869 -0.003129 184 184 184
2.740489 17.209614 135.488007 0.419242 0.907869 -0.003129 184 184 184
17.967745 10.176409 135.065674 0.419242 0.907869 -0.003129 184 184 184
12.891993 12.520811 135.206451 0.419242 0.907869 -0.003129 184 184 184
33.195000 3.143201 134.643356 0.419242 0.907869 -0.003129 184 184 184
-2.335263 19.554016 135.628769 0.419242 0.907869 -0.003129 184 184 184
31.307392 3.706028 54.400444 0.938186 0.345553 -0.020011 45 45 45
31.850668 3.532623 76.876854 0.938186 0.345553 -0.020011 184 184 184
31.443211 3.662677 60.019550 0.938186 0.345553 -0.020011 92 92 92
24.426464 6.925583 57.234283 0.419242 0.907869 -0.003129 139 139 139
31.714848 3.575974 71.257751 0.938186 0.345553 -0.020011 139 139 139
24.842068 6.792928 74.428734 0.419242 0.907869 -0.003129 184 184 184
31.583979 3.600252 65.638382 0.987683 0.154814 -0.022679 139 139 139
24.634264 6.859255 65.831505 0.419242 0.907869 -0.003129 184 184 184
17.593895 10.140735 74.629761 0.419242 0.907869 -0.003129 184 184 184
17.178289 10.273390 57.435303 0.419242 0.907869 -0.003129 229 229 229
17.386091 10.207062 66.032532 0.419242 0.907869 -0.003129 184 184 184
9.930117 13.621196 57.636330 0.419242 0.907869 -0.003129 243 243 243
10.345721 13.488541 74.830780 0.419242 0.907869 -0.003129 229 229 229
10.137918 13.554869 66.233551 0.419242 0.907869 -0.003129 229 229 229
3.097548 16.836348 75.031807 0.419242 0.907869 -0.003129 229 229 229
2.681943 16.969002 57.837349 0.419242 0.907869 -0.003129 243 243 243
2.889745 16.902676 66.434578 0.419242 0.907869 -0.003129 229 229 229
-4.274762 20.173077 55.387543 0.419242 0.907869 -0.003129 243 243 243
-3.731488 19.999670 77.863953 0.419242 0.907869 -0.003129 229 229 229
-3.867306 20.043020 72.244850 0.419242 0.907869 -0.003129 229 229 229
-4.138944 20.129725 61.006641 0.419242 0.907869 -0.003129 243 243 243
-4.003125 20.086372 66.625748 0.419242 0.907869 -0.003129 229 229 229
30.070175 -0.530986 79.189651 0.907553 -0.419183 -0.025170 139 139 139
28.156925 -4.474771 75.883850 0.907553 -0.419183 -0.025170 139 139 139
26.243673 -8.418556 72.578056 0.907553 -0.419183 -0.025170 92 92 92
25.997793 -8.285226 61.492046 0.907553 -0.419183 -0.025170 45 45 45
29.072941 -0.961529 50.570396 0.914910 -0.319192 0.247094 0 0 0
24.330425 -12.362342 69.272263 0.907553 -0.419183 -0.025170 45 45 45
26.976635 -5.605962 52.332741 0.914910 -0.319193 0.247094 45 45 45
24.880329 -10.250397 54.095081 0.914910 -0.319193 0.247094 92 92 92
22.417175 -16.306126 65.966461 0.907553 -0.419183 -0.025170 45 45 45
22.784021 -14.894831 55.857422 0.914910 -0.319193 0.247094 184 184 184
20.503925 -20.249910 62.660667 0.907553 -0.419183 -0.025170 184 184 184
20.687717 -19.539265 57.619762 0.914910 -0.319193 0.247093 251 251 251
31.901022 -0.834228 45.833241 0.845251 -0.192333 0.498557 7 7 7
32.639763 -5.364048 42.833271 0.845251 -0.192333 0.498557 139 139 139
27.782154 -13.967957 47.749626 0.845251 -0.192333 0.498557 243 243 243
33.378510 -9.893867 39.833305 0.845251 -0.192333 0.498557 251 251 251
34.117252 -14.423686 36.833336 0.845251 -0.192333 0.498557 255 255 255
31.591578 -20.034138 38.934135 0.744178 -0.563630 0.358498 255 255 255
34.831017 -19.006721 33.818241 0.595440 -0.724479 0.347249 255 255 255
28.328680 -21.091305 44.040665 0.658331 -0.700305 0.275994 251 251 251
25.079660 -22.127092 49.160378 0.711198 -0.623164 0.325369 251 251 251
21.825350 -23.170593 54.275154 0.711198 -0.623164 0.325368 243 243 243
13.928716 -35.773346 14.680942 0.355538 -0.860345 0.365240 184 184 184
17.408434 -32.981171 17.870792 0.355538 -0.860345 0.365240 229 229 229
9.293520 -30.814478 30.871685 0.383518 -0.890710 0.244030 184 184 184
14.397189 -28.456615 31.456848 0.387615 -0.894390 0.223206 229 229 229
20.888149 -30.188999 21.060642 0.355538 -0.860345 0.365240 229 229 229
19.499872 -26.097864 32.047005 0.381830 -0.889122 0.252324 229 229 229
24.367870 -27.396826 24.250492 0.355538 -0.860344 0.365240 229 229 229
24.604101 -23.740490 32.629250 0.391532 -0.897656 0.202278 229 229 229
27.847586 -24.604652 27.440338 0.355538 -0.860345 0.365240 184 184 184
29.706394 -21.381413 33.221500 0.381830 -0.889122 0.252324 243 243 243
31.327305 -21.812481 30.630188 0.355537 -0.860345 0.365240 229 229 229
6.543362 -31.690603 35.138889 0.001182 -0.956137 0.292917 45 45 45
8.954203 -30.202381 39.978958 0.196240 -0.960352 0.198027 139 139 139
18.367113 -25.865063 40.955986 0.411024 -0.908436 0.076180 229 229 229
11.326032 -28.713318 44.838005 0.001182 -0.956137 0.292917 92 92 92
13.730001 -27.225468 49.681576 0.127530 -0.964067 0.233049 139 139 139
16.108702 -25.736034 54.537121 0.001182 -0.956137 0.292917 45 45 45
2.427768 -22.936665 51.375935 -0.272187 -0.874015 0.402508 45 45 45
2.050567 -26.128536 44.189949 -0.272187 -0.874015 0.402508 92 92 92
-0.038928 -30.399927 33.492847 -0.439878 -0.877849 0.189441 139 139 139
-4.188849 -27.627710 36.702118 -0.470607 -0.870590 0.143532 229 229 229
-5.651107 -20.685854 50.800240 -0.272187 -0.874015 0.402508 45 45 45
-8.332624 -24.856949 39.920570 -0.439879 -0.877849 0.189441 229 229 229
-12.479473 -22.085461 43.134438 -0.439878 -0.877849 0.189441 229 229 229
-16.626324 -19.313971 46.348301 -0.439879 -0.877849 0.189442 184 184 184
-20.769962 -16.542934 49.566692 -0.407784 -0.882382 0.234762 139 139 139
-24.920017 -13.770993 52.776024 -0.439878 -0.877849 0.189441 92 92 92
-36.151268 -5.019246 34.282440 -0.575225 -0.817133 -0.037555 243 243 243
-34.383553 -6.512793 39.703625 -0.575225 -0.817133 -0.037555 243 243 243
-30.848120 -9.499887 50.546001 -0.575225 -0.817133 -0.037555 184 184 184
-24.441999 -13.440109 38.156860 -0.575225 -0.817133 -0.037555 229 229 229
-32.615833 -8.006339 45.124809 -0.575225 -0.817133 -0.037555 184 184 184
-17.299726 -18.478848 38.394016 -0.575225 -0.817133 -0.037555 229 229 229
3 0 1 2
3 2 1 3
3 2 3 4
3 4 3 5
3 6 7 8
3 4 7 6
3 4 5 7
3 3 9 5
3 10 11 12
3 8 7 10
3 10 13 11
3 10 7 13
3 5 9 14
3 5 14 15
3 11 13 16
3 7 17 13
3 5 15 7
3 7 15 17
3 14 18 15
3 16 13 19
3 15 18 20
3 17 15 21
3 15 20 21
3 17 21 13
3 18 22 20
3 13 21 19
3 19 21 23
3 20 22 24
3 22 25 24
3 20 24 21
3 21 24 26
3 21 26 23
3 23 26 27
3 25 28 24
3 27 26 29
3 24 28 30
3 24 30 26
3 26 30 31
3 28 32 30
3 26 31 29
3 29 31 33
3 30 32 34
3 32 35 34
3 30 34 31
3 31 34 36
3 31 37 33
3 31 36 37
3 35 38 34
3 37 36 39
3 37 39 40
3 36 41 39
3 34 42 36
3 36 42 41
3 34 38 42
3 38 43 44
3 38 44 42
3 43 45 44
3 46 47 48
3 47 49 50
3 47 50 48
3 49 51 50
3 48 50 52
3 53 54 55
3 51 56 50
3 57 58 59
3 60 53 61
3 62 60 63
3 51 57 56
3 53 55 61
3 50 64 52
3 58 62 63
3 57 59 56
3 58 63 59
3 60 61 63
3 50 56 64
3 52 64 65
3 55 66 61
3 64 67 65
3 61 66 68
3 64 69 67
3 61 68 70
3 61 71 63
3 59 63 72
3 56 73 64
3 61 70 71
3 63 71 72
3 64 73 69
3 59 73 56
3 59 72 73
3 67 69 74
3 68 75 70
3 70 75 76
3 69 77 74
3 73 77 69
3 71 70 78
3 73 79 77
3 71 78 72
3 70 76 78
3 73 72 80
3 73 80 79
3 72 78 80
3 74 77 81
3 75 82 76
3 81 77 83
3 76 82 84
3 76 84 85
3 80 86 79
3 79 86 87
3 80 78 88
3 77 79 87
3 80 88 86
3 76 85 78
3 78 85 88
3 84 89 85
3 83 90 91
3 77 90 83
3 77 87 90
3 87 92 90
3 85 89 93
3 87 94 92
3 88 85 95
3 86 88 95
3 85 93 95
3 89 96 93
3 87 86 94
3 86 97 94
3 86 95 97
3 95 98 97
3 96 99 93
3 95 100 98
3 95 93 100
3 93 101 100
3 93 99 101
3 99 102 103
3 99 103 101
3 102 104 103
3 105 106 107
3 108 109 110
3 106 108 111
3 106 111 107
3 108 110 111
3 107 111 112
3 110 113 111
3 111 113 114
3 111 114 112
3 112 114 115
3 113 116 114
3 115 114 117
3 115 117 118
3 114 116 119
3 114 120 117
3 114 119 120
3 119 121 120
3 119 122 121
3 122 123 121
3 109 124 110
3 110 124 113
3 113 124 125
3 116 126 119
3 113 125 127
3 113 127 116
3 116 127 126
3 125 128 127
3 119 126 122
3 122 129 123
3 122 126 130
3 122 130 129
3 127 128 131
3 127 131 132
3 126 133 130
3 127 132 126
3 126 132 133
3 129 130 134
3 131 135 132
3 130 136 134
3 134 136 137
3 133 138 130
3 130 138 136
3 133 132 139
3 133 139 138
3 132 135 140
3 132 140 141
3 132 141 139
3 140 142 141
3 142 140 143
3 143 140 135
3 143 135 144
3 144 135 131
3 144 145 146
3 144 131 145
3 131 128 145
3 145 128 147
3 128 125 147
3 147 125 148
3 125 124 148
3 148 124 149
3 124 109 149
3 150 151 152
3 152 151 153
3 151 154 153
3 153 154 155
3 155 149 109
3 155 154 156
3 155 156 149
3 156 148 149
3 156 157 148
3 157 147 148
3 157 158 147
3 158 145 147
3 158 159 145
3 159 146 145
3 160 161 162
3 160 151 150
3 160 162 151
3 151 162 163
3 151 163 154
3 163 164 154
3 154 164 156
3 156 164 165
3 156 165 157
3 157 165 166
3 157 166 158
3 166 167 158
3 158 167 159
3 167 168 159
3 159 168 146
3 169 170 171
3 172 173 174
3 170 175 176
3 177 172 178
3 179 180 175
3 177 181 182
3 170 176 171
3 172 174 178
3 179 182 181
3 179 181 180
3 177 178 181
3 175 180 176
3 171 176 183
3 174 184 178
3 178 184 185
3 176 186 183
3 176 180 186
3 181 187 180
3 180 188 186
3 180 187 188
3 178 187 181
3 178 185 187
3 184 189 185
3 183 186 190
3 185 189 191
3 186 192 190
3 186 193 192
3 185 191 194
3 186 188 193
3 187 195 188
3 188 196 193
3 185 195 187
3 185 194 195
3 188 195 196
3 192 193 197
3 191 198 194
3 193 199 197
3 194 198 200
3 193 196 199
3 196 201 199
3 195 202 196
3 196 202 201
3 195 194 202
3 194 200 202
3 197 199 203
3 198 204 200
3 204 205 200
3 203 199 206
3 199 207 206
3 200 205 208
3 199 201 207
3 201 209 207
3 202 210 201
3 201 210 209
3 202 200 210
3 200 208 210
3 206 207 211
3 205 212 208
3 207 209 213
3 210 208 214
3 207 215 211
3 208 212 216
3 209 210 217
3 210 218 217
3 209 217 213
3 210 214 218
3 207 213 215
3 208 216 214
3 211 215 219
3 212 220 216
3 168 167 221
3 222 170 169
3 223 221 224
3 225 226 222
3 227 228 225
3 223 228 227
3 222 226 170
3 221 167 224
3 223 224 228
3 225 228 226
3 170 226 175
3 167 166 224
3 226 229 175
3 224 166 230
3 224 231 228
3 224 230 231
3 228 229 226
3 228 231 229
3 175 229 179
3 166 165 230
3 230 165 164
3 230 164 232
3 229 182 179
3 229 233 182
3 230 234 231
3 231 234 229
3 230 232 234
3 229 234 233
3 164 163 232
3 182 233 177
3 233 235 177
3 232 163 236
3 234 237 233
3 233 237 235
3 234 232 237
3 232 236 237
3 163 162 236
3 177 235 172
3 236 162 238
3 235 239 172
3 235 237 240
3 236 241 237
3 237 242 240
3 237 241 242
3 236 238 241
3 235 240 239
3 172 239 173
3 162 161 238
3 169 243 222
3 222 243 244
3 222 244 225
3 225 244 245
3 225 245 227
3 227 245 246
3 221 247 168
3 227 246 223
3 245 248 246
3 221 249 247
3 223 249 221
3 223 246 249
3 246 250 249
3 248 251 246
3 246 252 250
3 246 251 252
3 251 253 252
3 252 253 254
3 253 54 254
3 168 247 255
3 255 247 249
3 255 249 256
3 256 249 257
3 256 257 258
3 259 260 261
3 249 250 257
3 258 260 259
3 258 257 260
3 257 262 260
3 257 250 252
3 257 263 262
3 257 252 263
3 252 264 263
3 252 254 264
3 254 54 264
3 4 265 6
3 6 265 8
3 8 265 266
3 10 267 12
3 8 267 10
3 8 266 267
3 266 268 267
3 266 269 268
3 269 270 268
3 269 271 270
3 271 272 270
3 271 273 272
3 273 274 272
3 273 275 274
3 275 261 274
3 12 267 276
3 276 267 277
3 267 268 277
3 277 278 279
3 277 268 278
3 268 270 278
3 279 278 280
3 281 264 54
3 280 264 281
3 270 272 278
3 280 263 264
3 280 278 263
3 278 262 263
3 278 272 262
3 272 260 262
3 272 274 260
3 274 261 260
3 54 53 281
3 281 53 60
3 281 60 280
3 280 60 282
3 279 283 277
3 280 282 279
3 279 282 283
3 276 284 12
3 60 62 282
3 277 283 276
3 276 283 284
3 283 285 284
3 282 62 58
3 282 58 286
3 282 286 283
3 283 287 285
3 58 57 286
3 283 286 287
3 286 288 287
3 286 57 51
3 286 289 288
3 286 51 289
3 51 290 289
3 51 49 290
3 49 291 290
3 49 47 291
3 47 46 291
3 40 37 292
3 292 37 33
3 292 33 293
3 294 291 46
3 293 33 295
3 293 295 296
3 33 29 295
3 296 295 294
3 294 295 291
3 295 290 291
3 295 29 27
3 295 27 297
3 295 289 290
3 295 297 289
3 27 23 297
3 297 288 289
3 297 287 288
3 297 23 19
3 297 19 287
3 19 285 287
3 19 16 285
3 16 284 285
3 16 11 284
3 11 12 284
0 0 0 0 0 0 0 0 0 0 0 0 255 255 255 0 0.000000 0.000000
