ply
format ascii 1.0
comment File exported by Rhinoceros Version 5.0
element vertex 793
property float x
property float y
property float z
element face 1536
property list uchar uint vertex_index
end_header
-4.688501 26.589809 0.000000
-63.776966 16.170919 0.000000
-63.776966 16.170919 34.000000
-4.688501 26.589809 34.000000
-4.688501 26.589809 17.000000
-34.232735 21.380363 0.000000
-34.232735 21.380363 17.000000
-63.776966 16.170919 17.000000
-34.232735 21.380363 34.000000
-49.004848 18.775640 8.500000
-34.232735 21.380363 8.500000
-49.004848 18.775640 0.000000
-4.688501 26.589809 25.500000
-19.460617 23.985086 17.000000
-19.460617 23.985086 25.500000
-19.460617 23.985086 0.000000
-19.460617 23.985086 8.500000
-4.688501 26.589809 8.500000
-34.232735 21.380363 25.500000
-19.460617 23.985086 34.000000
-63.776966 16.170919 8.500000
-49.004848 18.775640 17.000000
-49.004848 18.775640 34.000000
-49.004848 18.775640 25.500000
-63.776966 16.170919 25.500000
-41.618790 20.078003 0.000000
-41.618790 20.078003 4.250000
-34.232735 21.380363 4.250000
-56.390907 17.473280 4.250000
-49.004848 18.775640 4.250000
-56.390907 17.473280 0.000000
-34.232735 21.380363 12.750000
-41.618790 20.078003 8.500000
-41.618790 20.078003 12.750000
-26.846676 22.682726 21.250000
-19.460617 23.985086 21.250000
-26.846676 22.682726 17.000000
-4.688501 26.589809 29.750000
-12.074559 25.287449 25.500000
-12.074559 25.287449 29.750000
-12.074559 25.287449 17.000000
-12.074559 25.287449 21.250000
-4.688501 26.589809 21.250000
-4.688501 26.589809 12.750000
-12.074559 25.287449 8.500000
-12.074559 25.287449 12.750000
-12.074559 25.287449 0.000000
-12.074559 25.287449 4.250000
-4.688501 26.589809 4.250000
-26.846676 22.682726 4.250000
-19.460617 23.985086 4.250000
-26.846676 22.682726 0.000000
-26.846676 22.682726 34.000000
-26.846676 22.682726 29.750000
-34.232735 21.380363 29.750000
-19.460617 23.985086 29.750000
-12.074559 25.287449 34.000000
-34.232735 21.380363 21.250000
-26.846676 22.682726 25.500000
-49.004848 18.775640 12.750000
-41.618790 20.078003 17.000000
-63.776966 16.170919 4.250000
-56.390907 17.473280 8.500000
-56.390907 17.473280 17.000000
-56.390907 17.473280 12.750000
-63.776966 16.170919 12.750000
-63.776966 16.170919 21.250000
-56.390907 17.473280 25.500000
-56.390907 17.473280 21.250000
-56.390907 17.473280 34.000000
-56.390907 17.473280 29.750000
-63.776966 16.170919 29.750000
-41.618790 20.078003 29.750000
-49.004848 18.775640 29.750000
-41.618790 20.078003 34.000000
-26.846676 22.682726 8.500000
-26.846676 22.682726 12.750000
-19.460617 23.985086 12.750000
-41.618790 20.078003 25.500000
-41.618790 20.078003 21.250000
-49.004848 18.775640 21.250000
-53.358074 -42.917545 0.000000
5.730390 -32.498657 0.000000
5.730390 -32.498657 34.000000
-53.358074 -42.917545 34.000000
-53.358074 -42.917545 17.000000
-23.813843 -37.708099 0.000000
-23.813843 -37.708099 17.000000
5.730390 -32.498657 17.000000
-23.813843 -37.708099 34.000000
-9.041726 -35.103378 8.500000
-23.813843 -37.708099 8.500000
-9.041726 -35.103378 0.000000
-53.358074 -42.917545 25.500000
-38.585960 -40.312824 17.000000
-38.585960 -40.312824 25.500000
-38.585960 -40.312824 0.000000
-38.585960 -40.312824 8.500000
-53.358074 -42.917545 8.500000
-23.813843 -37.708099 25.500000
-38.585960 -40.312824 34.000000
5.730390 -32.498657 8.500000
-9.041726 -35.103378 17.000000
-9.041726 -35.103378 34.000000
-9.041726 -35.103378 25.500000
5.730390 -32.498657 25.500000
-16.427784 -36.405739 0.000000
-16.427784 -36.405739 4.250000
-23.813843 -37.708099 4.250000
-1.655668 -33.801018 4.250000
-9.041726 -35.103378 4.250000
-1.655668 -33.801018 0.000000
-23.813843 -37.708099 12.750000
-16.427784 -36.405739 8.500000
-16.427784 -36.405739 12.750000
-31.199902 -39.010464 21.250000
-38.585960 -40.312824 21.250000
-31.199902 -39.010464 17.000000
-53.358074 -42.917545 29.750000
-45.972015 -41.615185 25.500000
-45.972015 -41.615185 29.750000
-45.972015 -41.615185 17.000000
-45.972015 -41.615185 21.250000
-53.358074 -42.917545 21.250000
-53.358074 -42.917545 12.750000
-45.972015 -41.615185 8.500000
-45.972015 -41.615185 12.750000
-45.972015 -41.615185 0.000000
-45.972015 -41.615185 4.250000
-53.358074 -42.917545 4.250000
-31.199902 -39.010464 4.250000
-38.585960 -40.312824 4.250000
-31.199902 -39.010464 0.000000
-31.199902 -39.010464 34.000000
-31.199902 -39.010464 29.750000
-23.813843 -37.708099 29.750000
-38.585960 -40.312824 29.750000
-45.972015 -41.615185 34.000000
-23.813843 -37.708099 21.250000
-31.199902 -39.010464 25.500000
-9.041726 -35.103378 12.750000
-16.427784 -36.405739 17.000000
5.730390 -32.498657 4.250000
-1.655668 -33.801018 8.500000
-1.655668 -33.801018 17.000000
-1.655668 -33.801018 12.750000
5.730390 -32.498657 12.750000
5.730390 -32.498657 21.250000
-1.655668 -33.801018 25.500000
-1.655668 -33.801018 21.250000
-1.655668 -33.801018 34.000000
-1.655668 -33.801018 29.750000
5.730390 -32.498657 29.750000
-16.427784 -36.405739 29.750000
-9.041726 -35.103378 29.750000
-16.427784 -36.405739 34.000000
-31.199902 -39.010464 8.500000
-31.199902 -39.010464 12.750000
-38.585960 -40.312824 12.750000
-16.427784 -36.405739 25.500000
-16.427784 -36.405739 21.250000
-9.041726 -35.103378 21.250000
-58.567520 -13.373314 0.000000
-58.567520 -13.373314 17.000000
-58.567520 -13.373314 34.000000
-55.962799 -28.145430 8.500000
-58.567520 -13.373314 8.500000
-55.962799 -28.145430 0.000000
-61.172245 1.398802 17.000000
-61.172245 1.398802 25.500000
-61.172245 1.398802 0.000000
-61.172245 1.398802 8.500000
-58.567520 -13.373314 25.500000
-61.172245 1.398802 34.000000
-55.962799 -28.145430 17.000000
-55.962799 -28.145430 34.000000
-55.962799 -28.145430 25.500000
-57.265160 -20.759373 0.000000
-57.265160 -20.759373 4.250000
-58.567520 -13.373314 4.250000
-54.660439 -35.531487 4.250000
-55.962799 -28.145430 4.250000
-54.660439 -35.531487 0.000000
-58.567520 -13.373314 12.750000
-57.265160 -20.759373 8.500000
-57.265160 -20.759373 12.750000
-59.869881 -5.987256 21.250000
-61.172245 1.398802 21.250000
-59.869881 -5.987256 17.000000
-62.474606 8.784861 25.500000
-62.474606 8.784861 29.750000
-62.474606 8.784861 17.000000
-62.474606 8.784861 21.250000
-62.474606 8.784861 8.500000
-62.474606 8.784861 12.750000
-62.474606 8.784861 0.000000
-62.474606 8.784861 4.250000
-59.869881 -5.987256 4.250000
-61.172245 1.398802 4.250000
-59.869881 -5.987256 0.000000
-59.869881 -5.987256 34.000000
-59.869881 -5.987256 29.750000
-58.567520 -13.373314 29.750000
-61.172245 1.398802 29.750000
-62.474606 8.784861 34.000000
-58.567520 -13.373314 21.250000
-59.869881 -5.987256 25.500000
-55.962799 -28.145430 12.750000
-57.265160 -20.759373 17.000000
-54.660439 -35.531487 8.500000
-54.660439 -35.531487 17.000000
-54.660439 -35.531487 12.750000
-54.660439 -35.531487 25.500000
-54.660439 -35.531487 21.250000
-54.660439 -35.531487 34.000000
-54.660439 -35.531487 29.750000
-57.265160 -20.759373 29.750000
-55.962799 -28.145430 29.750000
-57.265160 -20.759373 34.000000
-59.869881 -5.987256 8.500000
-59.869881 -5.987256 12.750000
-61.172245 1.398802 12.750000
-57.265160 -20.759373 25.500000
-57.265160 -20.759373 21.250000
-55.962799 -28.145430 21.250000
5.730390 -32.498657 132.000000
-53.358074 -42.917545 132.000000
-53.358074 -42.917545 83.000000
-23.813843 -37.708099 83.000000
5.730390 -32.498657 83.000000
-23.813843 -37.708099 132.000000
-9.041726 -35.103378 58.500000
-23.813843 -37.708099 58.500000
-53.358074 -42.917545 107.500000
-38.585960 -40.312824 83.000000
-38.585960 -40.312824 107.500000
-38.585960 -40.312824 58.500000
-53.358074 -42.917545 58.500000
-23.813843 -37.708099 107.500000
-38.585960 -40.312824 132.000000
5.730390 -32.498657 58.500000
-9.041726 -35.103378 83.000000
-9.041726 -35.103378 132.000000
-9.041726 -35.103378 107.500000
5.730390 -32.498657 107.500000
-16.427784 -36.405739 46.250000
-23.813843 -37.708099 46.250000
-1.655668 -33.801018 46.250000
-9.041726 -35.103378 46.250000
-23.813843 -37.708099 70.750000
-16.427784 -36.405739 58.500000
-16.427784 -36.405739 70.750000
-31.199902 -39.010464 95.250000
-38.585960 -40.312824 95.250000
-31.199902 -39.010464 83.000000
-53.358074 -42.917545 119.750000
-45.972015 -41.615185 107.500000
-45.972015 -41.615185 119.750000
-45.972015 -41.615185 83.000000
-45.972015 -41.615185 95.250000
-53.358074 -42.917545 95.250000
-53.358074 -42.917545 70.750000
-45.972015 -41.615185 58.500000
-45.972015 -41.615185 70.750000
-45.972015 -41.615185 46.250000
-53.358074 -42.917545 46.250000
-31.199902 -39.010464 46.250000
-38.585960 -40.312824 46.250000
-31.199902 -39.010464 132.000000
-31.199902 -39.010464 119.750000
-23.813843 -37.708099 119.750000
-38.585960 -40.312824 119.750000
-45.972015 -41.615185 132.000000
-23.813843 -37.708099 95.250000
-31.199902 -39.010464 107.500000
-9.041726 -35.103378 70.750000
-16.427784 -36.405739 83.000000
5.730390 -32.498657 46.250000
-1.655668 -33.801018 58.500000
-1.655668 -33.801018 83.000000
-1.655668 -33.801018 70.750000
5.730390 -32.498657 70.750000
5.730390 -32.498657 95.250000
-1.655668 -33.801018 107.500000
-1.655668 -33.801018 95.250000
-1.655668 -33.801018 132.000000
-1.655668 -33.801018 119.750000
5.730390 -32.498657 119.750000
-16.427784 -36.405739 119.750000
-9.041726 -35.103378 119.750000
-16.427784 -36.405739 132.000000
-31.199902 -39.010464 58.500000
-31.199902 -39.010464 70.750000
-38.585960 -40.312824 70.750000
-16.427784 -36.405739 107.500000
-16.427784 -36.405739 95.250000
-9.041726 -35.103378 95.250000
-63.776966 16.170919 132.000000
-4.688501 26.589809 132.000000
-4.688501 26.589809 83.000000
-34.232735 21.380363 83.000000
-63.776966 16.170919 83.000000
-34.232735 21.380363 132.000000
-49.004848 18.775640 58.500000
-34.232735 21.380363 58.500000
-4.688501 26.589809 107.500000
-19.460617 23.985086 83.000000
-19.460617 23.985086 107.500000
-19.460617 23.985086 58.500000
-4.688501 26.589809 58.500000
-34.232735 21.380363 107.500000
-19.460617 23.985086 132.000000
-63.776966 16.170919 58.500000
-49.004848 18.775640 83.000000
-49.004848 18.775640 132.000000
-49.004848 18.775640 107.500000
-63.776966 16.170919 107.500000
-41.618790 20.078003 46.250000
-34.232735 21.380363 46.250000
-56.390907 17.473280 46.250000
-49.004848 18.775640 46.250000
-34.232735 21.380363 70.750000
-41.618790 20.078003 58.500000
-41.618790 20.078003 70.750000
-26.846676 22.682726 95.250000
-19.460617 23.985086 95.250000
-26.846676 22.682726 83.000000
-4.688501 26.589809 119.750000
-12.074559 25.287449 107.500000
-12.074559 25.287449 119.750000
-12.074559 25.287449 83.000000
-12.074559 25.287449 95.250000
-4.688501 26.589809 95.250000
-4.688501 26.589809 70.750000
-12.074559 25.287449 58.500000
-12.074559 25.287449 70.750000
-12.074559 25.287449 46.250000
-4.688501 26.589809 46.250000
-26.846676 22.682726 46.250000
-19.460617 23.985086 46.250000
-26.846676 22.682726 132.000000
-26.846676 22.682726 119.750000
-34.232735 21.380363 119.750000
-19.460617 23.985086 119.750000
-12.074559 25.287449 132.000000
-34.232735 21.380363 95.250000
-26.846676 22.682726 107.500000
-49.004848 18.775640 70.750000
-41.618790 20.078003 83.000000
-63.776966 16.170919 46.250000
-56.390907 17.473280 58.500000
-56.390907 17.473280 83.000000
-56.390907 17.473280 70.750000
-63.776966 16.170919 70.750000
-63.776966 16.170919 95.250000
-56.390907 17.473280 107.500000
-56.390907 17.473280 95.250000
-56.390907 17.473280 132.000000
-56.390907 17.473280 119.750000
-63.776966 16.170919 119.750000
-41.618790 20.078003 119.750000
-49.004848 18.775640 119.750000
-41.618790 20.078003 132.000000
-26.846676 22.682726 58.500000
-26.846676 22.682726 70.750000
-19.460617 23.985086 70.750000
-41.618790 20.078003 107.500000
-41.618790 20.078003 95.250000
-49.004848 18.775640 95.250000
-58.567520 -13.373314 83.000000
-58.567520 -13.373314 132.000000
-55.962799 -28.145430 58.500000
-58.567520 -13.373314 58.500000
-61.172245 1.398802 83.000000
-61.172245 1.398802 107.500000
-61.172245 1.398802 58.500000
-58.567520 -13.373314 107.500000
-61.172245 1.398802 132.000000
-55.962799 -28.145430 83.000000
-55.962799 -28.145430 132.000000
-55.962799 -28.145430 107.500000
-57.265160 -20.759373 46.250000
-58.567520 -13.373314 46.250000
-54.660439 -35.531487 46.250000
-55.962799 -28.145430 46.250000
-58.567520 -13.373314 70.750000
-57.265160 -20.759373 58.500000
-57.265160 -20.759373 70.750000
-59.869881 -5.987256 95.250000
-61.172245 1.398802 95.250000
-59.869881 -5.987256 83.000000
-62.474606 8.784861 107.500000
-62.474606 8.784861 119.750000
-62.474606 8.784861 83.000000
-62.474606 8.784861 95.250000
-62.474606 8.784861 58.500000
-62.474606 8.784861 70.750000
-62.474606 8.784861 46.250000
-59.869881 -5.987256 46.250000
-61.172245 1.398802 46.250000
-59.869881 -5.987256 132.000000
-59.869881 -5.987256 119.750000
-58.567520 -13.373314 119.750000
-61.172245 1.398802 119.750000
-62.474606 8.784861 132.000000
-58.567520 -13.373314 95.250000
-59.869881 -5.987256 107.500000
-55.962799 -28.145430 70.750000
-57.265160 -20.759373 83.000000
-54.660439 -35.531487 58.500000
-54.660439 -35.531487 83.000000
-54.660439 -35.531487 70.750000
-54.660439 -35.531487 107.500000
-54.660439 -35.531487 95.250000
-54.660439 -35.531487 132.000000
-54.660439 -35.531487 119.750000
-57.265160 -20.759373 119.750000
-55.962799 -28.145430 119.750000
-57.265160 -20.759373 132.000000
-59.869881 -5.987256 58.500000
-59.869881 -5.987256 70.750000
-61.172245 1.398802 70.750000
-57.265160 -20.759373 107.500000
-57.265160 -20.759373 95.250000
-55.962799 -28.145430 95.250000
0.520945 -2.954423 34.000000
0.520945 -2.954423 83.000000
0.520945 -2.954423 132.000000
-2.083778 11.817693 58.500000
0.520945 -2.954423 58.500000
-2.083778 11.817693 34.000000
3.125667 -17.726540 83.000000
3.125667 -17.726540 107.500000
3.125667 -17.726540 34.000000
3.125667 -17.726540 58.500000
0.520945 -2.954423 107.500000
3.125667 -17.726540 132.000000
-2.083778 11.817693 83.000000
-2.083778 11.817693 132.000000
-2.083778 11.817693 107.500000
-0.781417 4.431635 34.000000
-0.781417 4.431635 46.250000
0.520945 -2.954423 46.250000
-3.386139 19.203751 46.250000
-2.083778 11.817693 46.250000
-3.386139 19.203751 34.000000
0.520945 -2.954423 70.750000
-0.781417 4.431635 58.500000
-0.781417 4.431635 70.750000
1.823306 -10.340482 95.250000
3.125667 -17.726540 95.250000
1.823306 -10.340482 83.000000
4.428029 -25.112598 107.500000
4.428029 -25.112598 119.750000
4.428029 -25.112598 83.000000
4.428029 -25.112598 95.250000
4.428029 -25.112598 58.500000
4.428029 -25.112598 70.750000
4.428029 -25.112598 34.000000
4.428029 -25.112598 46.250000
1.823306 -10.340482 46.250000
3.125667 -17.726540 46.250000
1.823306 -10.340482 34.000000
1.823306 -10.340482 132.000000
1.823306 -10.340482 119.750000
0.520945 -2.954423 119.750000
3.125667 -17.726540 119.750000
4.428029 -25.112598 132.000000
0.520945 -2.954423 95.250000
1.823306 -10.340482 107.500000
-2.083778 11.817693 70.750000
-0.781417 4.431635 83.000000
-3.386139 19.203751 58.500000
-3.386139 19.203751 83.000000
-3.386139 19.203751 70.750000
-3.386139 19.203751 107.500000
-3.386139 19.203751 95.250000
-3.386139 19.203751 132.000000
-3.386139 19.203751 119.750000
-0.781417 4.431635 119.750000
-2.083778 11.817693 119.750000
-0.781417 4.431635 132.000000
1.823306 -10.340482 58.500000
1.823306 -10.340482 70.750000
3.125667 -17.726540 70.750000
-0.781417 4.431635 107.500000
-0.781417 4.431635 95.250000
-2.083778 11.817693 95.250000
76.636551 -19.995987 0.000000
76.636551 -19.995987 34.000000
41.183468 -26.247322 0.000000
41.183468 -26.247322 17.000000
76.636551 -19.995987 17.000000
41.183468 -26.247322 34.000000
58.910007 -23.121655 8.500000
41.183468 -26.247322 8.500000
58.910007 -23.121655 0.000000
23.456930 -29.372988 17.000000
23.456930 -29.372988 25.500000
23.456930 -29.372988 0.000000
23.456930 -29.372988 8.500000
41.183468 -26.247322 25.500000
23.456930 -29.372988 34.000000
76.636551 -19.995987 8.500000
58.910007 -23.121655 17.000000
58.910007 -23.121655 34.000000
58.910007 -23.121655 25.500000
76.636551 -19.995987 25.500000
50.046738 -24.684488 0.000000
50.046738 -24.684488 4.250000
41.183468 -26.247322 4.250000
67.773277 -21.558821 4.250000
58.910007 -23.121655 4.250000
67.773277 -21.558821 0.000000
41.183468 -26.247322 12.750000
50.046738 -24.684488 8.500000
50.046738 -24.684488 12.750000
32.320198 -27.810156 21.250000
23.456930 -29.372988 21.250000
32.320198 -27.810156 17.000000
14.593659 -30.935822 25.500000
14.593659 -30.935822 29.750000
14.593659 -30.935822 17.000000
14.593659 -30.935822 21.250000
14.593659 -30.935822 8.500000
14.593659 -30.935822 12.750000
14.593659 -30.935822 0.000000
14.593659 -30.935822 4.250000
32.320198 -27.810156 4.250000
23.456930 -29.372988 4.250000
32.320198 -27.810156 0.000000
32.320198 -27.810156 34.000000
32.320198 -27.810156 29.750000
41.183468 -26.247322 29.750000
23.456930 -29.372988 29.750000
14.593659 -30.935822 34.000000
41.183468 -26.247322 21.250000
32.320198 -27.810156 25.500000
58.910007 -23.121655 12.750000
50.046738 -24.684488 17.000000
76.636551 -19.995987 4.250000
67.773277 -21.558821 8.500000
67.773277 -21.558821 17.000000
67.773277 -21.558821 12.750000
76.636551 -19.995987 12.750000
76.636551 -19.995987 21.250000
67.773277 -21.558821 25.500000
67.773277 -21.558821 21.250000
67.773277 -21.558821 34.000000
67.773277 -21.558821 29.750000
76.636551 -19.995987 29.750000
50.046738 -24.684488 29.750000
58.910007 -23.121655 29.750000
50.046738 -24.684488 34.000000
32.320198 -27.810156 8.500000
32.320198 -27.810156 12.750000
23.456930 -29.372988 12.750000
50.046738 -24.684488 25.500000
50.046738 -24.684488 21.250000
58.910007 -23.121655 21.250000
66.217659 39.092480 0.000000
66.217659 39.092480 34.000000
66.217659 39.092480 17.000000
30.764578 32.841145 0.000000
30.764578 32.841145 17.000000
30.764578 32.841145 34.000000
13.038039 29.715477 8.500000
30.764578 32.841145 8.500000
13.038039 29.715477 0.000000
66.217659 39.092480 25.500000
48.491119 35.966812 17.000000
48.491119 35.966812 25.500000
48.491119 35.966812 0.000000
48.491119 35.966812 8.500000
66.217659 39.092480 8.500000
30.764578 32.841145 25.500000
48.491119 35.966812 34.000000
13.038039 29.715477 17.000000
13.038039 29.715477 34.000000
13.038039 29.715477 25.500000
21.901308 31.278311 0.000000
21.901308 31.278311 4.250000
30.764578 32.841145 4.250000
4.174769 28.152643 4.250000
13.038039 29.715477 4.250000
4.174769 28.152643 0.000000
30.764578 32.841145 12.750000
21.901308 31.278311 8.500000
21.901308 31.278311 12.750000
39.627850 34.403976 21.250000
48.491119 35.966812 21.250000
39.627850 34.403976 17.000000
66.217659 39.092480 29.750000
57.354389 37.529644 25.500000
57.354389 37.529644 29.750000
57.354389 37.529644 17.000000
57.354389 37.529644 21.250000
66.217659 39.092480 21.250000
66.217659 39.092480 12.750000
57.354389 37.529644 8.500000
57.354389 37.529644 12.750000
57.354389 37.529644 0.000000
57.354389 37.529644 4.250000
66.217659 39.092480 4.250000
39.627850 34.403976 4.250000
48.491119 35.966812 4.250000
39.627850 34.403976 0.000000
39.627850 34.403976 34.000000
39.627850 34.403976 29.750000
30.764578 32.841145 29.750000
48.491119 35.966812 29.750000
57.354389 37.529644 34.000000
30.764578 32.841145 21.250000
39.627850 34.403976 25.500000
13.038039 29.715477 12.750000
21.901308 31.278311 17.000000
4.174769 28.152643 8.500000
4.174769 28.152643 17.000000
4.174769 28.152643 12.750000
4.174769 28.152643 25.500000
4.174769 28.152643 21.250000
4.174769 28.152643 34.000000
4.174769 28.152643 29.750000
21.901308 31.278311 29.750000
13.038039 29.715477 29.750000
21.901308 31.278311 34.000000
39.627850 34.403976 8.500000
39.627850 34.403976 12.750000
48.491119 35.966812 12.750000
21.901308 31.278311 25.500000
21.901308 31.278311 21.250000
13.038039 29.715477 21.250000
-29.023289 -8.163869 132.000000
-11.646449 -20.331263 132.000000
-26.418566 -22.935986 132.000000
-43.795403 -10.768591 132.000000
-46.400127 4.003525 132.000000
-41.190681 -25.540707 132.000000
-31.628010 6.608248 132.000000
-14.251172 -5.559146 132.000000
-16.855894 9.212971 132.000000
-17.730146 -29.019682 132.000000
-25.116203 -30.322042 132.000000
-2.958030 -26.414959 132.000000
-10.344088 -27.717319 132.000000
-27.720926 -15.549927 132.000000
-19.032507 -21.633623 132.000000
-20.334869 -14.247565 132.000000
-37.711708 -2.080172 132.000000
-45.097767 -3.382533 132.000000
-36.409348 -9.466230 132.000000
-53.786186 2.701164 132.000000
-55.088547 10.087222 132.000000
-51.181461 -12.070952 132.000000
-52.483826 -4.684895 132.000000
-48.576740 -26.843069 132.000000
-49.879101 -19.457010 132.000000
-47.274380 -34.229126 132.000000
-32.502262 -31.624405 132.000000
-39.888321 -32.926765 132.000000
-40.316429 12.691944 132.000000
-32.930370 13.994306 132.000000
-47.702488 11.389584 132.000000
-30.325649 -0.777810 132.000000
-39.014069 5.305886 132.000000
-12.948811 -12.945204 132.000000
-21.637230 -6.861507 132.000000
-4.260391 -19.028900 132.000000
-6.865114 -4.256784 132.000000
-5.562752 -11.642842 132.000000
-9.469836 10.515331 132.000000
-8.167475 3.129274 132.000000
-10.772198 17.901390 132.000000
-25.544313 15.296667 132.000000
-18.158257 16.599028 132.000000
-33.804623 -24.238346 132.000000
-35.106983 -16.852287 132.000000
-42.493042 -18.154650 132.000000
-24.241953 7.910609 132.000000
-22.939590 0.524551 132.000000
-15.553534 1.826912 132.000000
71.427101 9.548245 0.000000
71.427101 9.548245 17.000000
71.427101 9.548245 34.000000
68.822380 24.320362 8.500000
71.427101 9.548245 8.500000
68.822380 24.320362 0.000000
74.031822 -5.223871 17.000000
74.031822 -5.223871 25.500000
74.031822 -5.223871 0.000000
74.031822 -5.223871 8.500000
71.427101 9.548245 25.500000
74.031822 -5.223871 34.000000
68.822380 24.320362 17.000000
68.822380 24.320362 34.000000
68.822380 24.320362 25.500000
70.124741 16.934303 0.000000
70.124741 16.934303 4.250000
71.427101 9.548245 4.250000
67.520020 31.706421 4.250000
68.822380 24.320362 4.250000
67.520020 31.706421 0.000000
71.427101 9.548245 12.750000
70.124741 16.934303 8.500000
70.124741 16.934303 12.750000
72.729462 2.162187 21.250000
74.031822 -5.223871 21.250000
72.729462 2.162187 17.000000
75.334190 -12.609929 25.500000
75.334190 -12.609929 29.750000
75.334190 -12.609929 17.000000
75.334190 -12.609929 21.250000
75.334190 -12.609929 8.500000
75.334190 -12.609929 12.750000
75.334190 -12.609929 0.000000
75.334190 -12.609929 4.250000
72.729462 2.162187 4.250000
74.031822 -5.223871 4.250000
72.729462 2.162187 0.000000
72.729462 2.162187 34.000000
72.729462 2.162187 29.750000
71.427101 9.548245 29.750000
74.031822 -5.223871 29.750000
75.334190 -12.609929 34.000000
71.427101 9.548245 21.250000
72.729462 2.162187 25.500000
68.822380 24.320362 12.750000
70.124741 16.934303 17.000000
67.520020 31.706421 8.500000
67.520020 31.706421 17.000000
67.520020 31.706421 12.750000
67.520020 31.706421 25.500000
67.520020 31.706421 21.250000
67.520020 31.706421 34.000000
67.520020 31.706421 29.750000
70.124741 16.934303 29.750000
68.822380 24.320362 29.750000
70.124741 16.934303 34.000000
72.729462 2.162187 8.500000
72.729462 2.162187 12.750000
74.031822 -5.223871 12.750000
70.124741 16.934303 25.500000
70.124741 16.934303 21.250000
68.822380 24.320362 21.250000
35.974022 3.296911 34.000000
56.305286 -8.349538 34.000000
38.578747 -11.475205 34.000000
18.247484 0.171244 34.000000
15.642761 14.943360 34.000000
20.852207 -14.600872 34.000000
33.369301 18.069027 34.000000
53.700562 6.422578 34.000000
51.095840 21.194695 34.000000
48.744377 -17.298429 34.000000
39.881107 -18.861263 34.000000
66.470917 -14.172763 34.000000
57.607647 -15.735596 34.000000
37.276386 -4.089147 34.000000
47.442017 -9.912372 34.000000
46.139656 -2.526313 34.000000
25.808393 9.120135 34.000000
16.945124 7.557302 34.000000
27.110754 1.734078 34.000000
6.779491 13.380527 34.000000
5.477130 20.766584 34.000000
9.384214 -1.391590 34.000000
8.081853 5.994469 34.000000
11.988937 -16.163706 34.000000
10.686576 -8.777648 34.000000
13.291298 -23.549765 34.000000
31.017838 -20.424097 34.000000
22.154568 -21.986931 34.000000
23.203671 23.892252 34.000000
32.066940 25.455086 34.000000
14.340400 22.329418 34.000000
34.671661 10.682969 34.000000
24.506031 16.506193 34.000000
55.002926 -0.963480 34.000000
44.837292 4.859745 34.000000
65.168556 -6.786705 34.000000
62.563831 7.985412 34.000000
63.866196 0.599354 34.000000
59.959110 22.757528 34.000000
61.261471 15.371470 34.000000
58.656750 30.143587 34.000000
40.930210 27.017920 34.000000
49.793480 28.580753 34.000000
29.715477 -13.038039 34.000000
28.413115 -5.651980 34.000000
19.549845 -7.214814 34.000000
42.232571 19.631861 34.000000
43.534931 12.245803 34.000000
52.398201 13.808637 34.000000
3 10 27 26
3 5 25 27
3 11 26 25
3 11 30 29
3 1 28 30
3 9 29 28
3 9 33 32
3 6 31 33
3 10 32 31
3 13 36 35
3 6 34 36
3 14 35 34
3 14 39 38
3 3 37 39
3 12 38 37
3 12 42 41
3 4 40 42
3 13 41 40
3 16 45 44
3 4 43 45
3 17 44 43
3 17 48 47
3 0 46 48
3 15 47 46
3 15 51 50
3 5 49 51
3 16 50 49
3 18 54 53
3 8 52 54
3 19 53 52
3 19 56 55
3 3 39 56
3 14 55 39
3 14 34 58
3 6 57 34
3 18 58 57
3 21 60 59
3 6 33 60
3 9 59 33
3 9 28 62
3 1 61 28
3 20 62 61
3 20 65 64
3 7 63 65
3 21 64 63
3 23 68 67
3 7 66 68
3 24 67 66
3 24 71 70
3 2 69 71
3 22 70 69
3 22 74 73
3 8 72 74
3 23 73 72
3 16 49 75
3 5 27 49
3 10 75 27
3 10 31 76
3 6 36 31
3 13 76 36
3 13 40 77
3 4 45 40
3 16 77 45
3 23 72 78
3 8 54 72
3 18 78 54
3 18 57 79
3 6 60 57
3 21 79 60
3 21 63 80
3 7 68 63
3 23 80 68
3 10 26 32
3 11 29 26
3 9 32 29
3 13 35 41
3 14 38 35
3 12 41 38
3 16 44 50
3 17 47 44
3 15 50 47
3 18 53 58
3 19 55 53
3 14 58 55
3 21 59 64
3 9 62 59
3 20 64 62
3 23 67 73
3 24 70 67
3 22 73 70
3 16 75 77
3 10 76 75
3 13 77 76
3 23 78 80
3 18 79 78
3 21 80 79
3 27 25 26
3 30 28 29
3 33 31 32
3 36 34 35
3 39 37 38
3 42 40 41
3 45 43 44
3 48 46 47
3 51 49 50
3 54 52 53
3 56 39 55
3 34 57 58
3 60 33 59
3 28 61 62
3 65 63 64
3 68 66 67
3 71 69 70
3 74 72 73
3 49 27 75
3 31 36 76
3 40 45 77
3 72 54 78
3 57 60 79
3 63 68 80
3 26 29 32
3 35 38 41
3 44 47 50
3 53 55 58
3 59 62 64
3 67 70 73
3 75 76 77
3 78 79 80
3 91 108 107
3 86 106 108
3 92 107 106
3 92 111 110
3 82 109 111
3 90 110 109
3 90 114 113
3 87 112 114
3 91 113 112
3 94 117 116
3 87 115 117
3 95 116 115
3 95 120 119
3 84 118 120
3 93 119 118
3 93 123 122
3 85 121 123
3 94 122 121
3 97 126 125
3 85 124 126
3 98 125 124
3 98 129 128
3 81 127 129
3 96 128 127
3 96 132 131
3 86 130 132
3 97 131 130
3 99 135 134
3 89 133 135
3 100 134 133
3 100 137 136
3 84 120 137
3 95 136 120
3 95 115 139
3 87 138 115
3 99 139 138
3 102 141 140
3 87 114 141
3 90 140 114
3 90 109 143
3 82 142 109
3 101 143 142
3 101 146 145
3 88 144 146
3 102 145 144
3 104 149 148
3 88 147 149
3 105 148 147
3 105 152 151
3 83 150 152
3 103 151 150
3 103 155 154
3 89 153 155
3 104 154 153
3 97 130 156
3 86 108 130
3 91 156 108
3 91 112 157
3 87 117 112
3 94 157 117
3 94 121 158
3 85 126 121
3 97 158 126
3 104 153 159
3 89 135 153
3 99 159 135
3 99 138 160
3 87 141 138
3 102 160 141
3 102 144 161
3 88 149 144
3 104 161 149
3 91 107 113
3 92 110 107
3 90 113 110
3 94 116 122
3 95 119 116
3 93 122 119
3 97 125 131
3 98 128 125
3 96 131 128
3 99 134 139
3 100 136 134
3 95 139 136
3 102 140 145
3 90 143 140
3 101 145 143
3 104 148 154
3 105 151 148
3 103 154 151
3 97 156 158
3 91 157 156
3 94 158 157
3 104 159 161
3 99 160 159
3 102 161 160
3 108 106 107
3 111 109 110
3 114 112 113
3 117 115 116
3 120 118 119
3 123 121 122
3 126 124 125
3 129 127 128
3 132 130 131
3 135 133 134
3 137 120 136
3 115 138 139
3 141 114 140
3 109 142 143
3 146 144 145
3 149 147 148
3 152 150 151
3 155 153 154
3 130 108 156
3 112 117 157
3 121 126 158
3 153 135 159
3 138 141 160
3 144 149 161
3 107 110 113
3 116 119 122
3 125 128 131
3 134 136 139
3 140 143 145
3 148 151 154
3 156 157 158
3 159 160 161
3 166 179 178
3 162 177 179
3 167 178 177
3 167 182 181
3 81 180 182
3 165 181 180
3 165 185 184
3 163 183 185
3 166 184 183
3 168 188 187
3 163 186 188
3 169 187 186
3 169 190 189
3 2 71 190
3 24 189 71
3 24 66 192
3 7 191 66
3 168 192 191
3 171 194 193
3 7 65 194
3 20 193 65
3 20 61 196
3 1 195 61
3 170 196 195
3 170 199 198
3 162 197 199
3 171 198 197
3 172 202 201
3 164 200 202
3 173 201 200
3 173 204 203
3 2 190 204
3 169 203 190
3 169 186 206
3 163 205 186
3 172 206 205
3 174 208 207
3 163 185 208
3 165 207 185
3 165 180 209
3 81 129 180
3 98 209 129
3 98 124 211
3 85 210 124
3 174 211 210
3 176 213 212
3 85 123 213
3 93 212 123
3 93 118 215
3 84 214 118
3 175 215 214
3 175 218 217
3 164 216 218
3 176 217 216
3 171 197 219
3 162 179 197
3 166 219 179
3 166 183 220
3 163 188 183
3 168 220 188
3 168 191 221
3 7 194 191
3 171 221 194
3 176 216 222
3 164 202 216
3 172 222 202
3 172 205 223
3 163 208 205
3 174 223 208
3 174 210 224
3 85 213 210
3 176 224 213
3 166 178 184
3 167 181 178
3 165 184 181
3 168 187 192
3 169 189 187
3 24 192 189
3 171 193 198
3 20 196 193
3 170 198 196
3 172 201 206
3 173 203 201
3 169 206 203
3 174 207 211
3 165 209 207
3 98 211 209
3 176 212 217
3 93 215 212
3 175 217 215
3 171 219 221
3 166 220 219
3 168 221 220
3 176 222 224
3 172 223 222
3 174 224 223
3 179 177 178
3 182 180 181
3 185 183 184
3 188 186 187
3 190 71 189
3 66 191 192
3 194 65 193
3 61 195 196
3 199 197 198
3 202 200 201
3 204 190 203
3 186 205 206
3 208 185 207
3 180 129 209
3 124 210 211
3 213 123 212
3 118 214 215
3 218 216 217
3 197 179 219
3 183 188 220
3 191 194 221
3 216 202 222
3 205 208 223
3 210 213 224
3 178 181 184
3 187 189 192
3 193 196 198
3 201 203 206
3 207 209 211
3 212 215 217
3 219 220 221
3 222 223 224
3 232 246 245
3 89 155 246
3 103 245 155
3 103 150 248
3 83 247 150
3 231 248 247
3 231 251 250
3 228 249 251
3 232 250 249
3 234 254 253
3 228 252 254
3 235 253 252
3 235 257 256
3 226 255 257
3 233 256 255
3 233 260 259
3 227 258 260
3 234 259 258
3 236 263 262
3 227 261 263
3 237 262 261
3 237 265 264
3 84 137 265
3 100 264 137
3 100 133 267
3 89 266 133
3 236 267 266
3 238 270 269
3 230 268 270
3 239 269 268
3 239 272 271
3 226 257 272
3 235 271 257
3 235 252 274
3 228 273 252
3 238 274 273
3 241 276 275
3 228 251 276
3 231 275 251
3 231 247 278
3 83 277 247
3 240 278 277
3 240 281 280
3 229 279 281
3 241 280 279
3 243 284 283
3 229 282 284
3 244 283 282
3 244 287 286
3 225 285 287
3 242 286 285
3 242 290 289
3 230 288 290
3 243 289 288
3 236 266 291
3 89 246 266
3 232 291 246
3 232 249 292
3 228 254 249
3 234 292 254
3 234 258 293
3 227 263 258
3 236 293 263
3 243 288 294
3 230 270 288
3 238 294 270
3 238 273 295
3 228 276 273
3 241 295 276
3 241 279 296
3 229 284 279
3 243 296 284
3 232 245 250
3 103 248 245
3 231 250 248
3 234 253 259
3 235 256 253
3 233 259 256
3 236 262 267
3 237 264 262
3 100 267 264
3 238 269 274
3 239 271 269
3 235 274 271
3 241 275 280
3 231 278 275
3 240 280 278
3 243 283 289
3 244 286 283
3 242 289 286
3 236 291 293
3 232 292 291
3 234 293 292
3 243 294 296
3 238 295 294
3 241 296 295
3 246 155 245
3 150 247 248
3 251 249 250
3 254 252 253
3 257 255 256
3 260 258 259
3 263 261 262
3 265 137 264
3 133 266 267
3 270 268 269
3 272 257 271
3 252 273 274
3 276 251 275
3 247 277 278
3 281 279 280
3 284 282 283
3 287 285 286
3 290 288 289
3 266 246 291
3 249 254 292
3 258 263 293
3 288 270 294
3 273 276 295
3 279 284 296
3 245 248 250
3 253 256 259
3 262 264 267
3 269 271 274
3 275 278 280
3 283 286 289
3 291 292 293
3 294 295 296
3 304 318 317
3 8 74 318
3 22 317 74
3 22 69 320
3 2 319 69
3 303 320 319
3 303 323 322
3 300 321 323
3 304 322 321
3 306 326 325
3 300 324 326
3 307 325 324
3 307 329 328
3 298 327 329
3 305 328 327
3 305 332 331
3 299 330 332
3 306 331 330
3 308 335 334
3 299 333 335
3 309 334 333
3 309 337 336
3 3 56 337
3 19 336 56
3 19 52 339
3 8 338 52
3 308 339 338
3 310 342 341
3 302 340 342
3 311 341 340
3 311 344 343
3 298 329 344
3 307 343 329
3 307 324 346
3 300 345 324
3 310 346 345
3 313 348 347
3 300 323 348
3 303 347 323
3 303 319 350
3 2 349 319
3 312 350 349
3 312 353 352
3 301 351 353
3 313 352 351
3 315 356 355
3 301 354 356
3 316 355 354
3 316 359 358
3 297 357 359
3 314 358 357
3 314 362 361
3 302 360 362
3 315 361 360
3 308 338 363
3 8 318 338
3 304 363 318
3 304 321 364
3 300 326 321
3 306 364 326
3 306 330 365
3 299 335 330
3 308 365 335
3 315 360 366
3 302 342 360
3 310 366 342
3 310 345 367
3 300 348 345
3 313 367 348
3 313 351 368
3 301 356 351
3 315 368 356
3 304 317 322
3 22 320 317
3 303 322 320
3 306 325 331
3 307 328 325
3 305 331 328
3 308 334 339
3 309 336 334
3 19 339 336
3 310 341 346
3 311 343 341
3 307 346 343
3 313 347 352
3 303 350 347
3 312 352 350
3 315 355 361
3 316 358 355
3 314 361 358
3 308 363 365
3 304 364 363
3 306 365 364
3 315 366 368
3 310 367 366
3 313 368 367
3 318 74 317
3 69 319 320
3 323 321 322
3 326 324 325
3 329 327 328
3 332 330 331
3 335 333 334
3 337 56 336
3 52 338 339
3 342 340 341
3 344 329 343
3 324 345 346
3 348 323 347
3 319 349 350
3 353 351 352
3 356 354 355
3 359 357 358
3 362 360 361
3 338 318 363
3 321 326 364
3 330 335 365
3 360 342 366
3 345 348 367
3 351 356 368
3 317 320 322
3 325 328 331
3 334 336 339
3 341 343 346
3 347 350 352
3 355 358 361
3 363 364 365
3 366 367 368
3 372 382 381
3 164 218 382
3 175 381 218
3 175 214 384
3 84 383 214
3 371 384 383
3 371 387 386
3 369 385 387
3 372 386 385
3 373 390 389
3 369 388 390
3 374 389 388
3 374 392 391
3 297 359 392
3 316 391 359
3 316 354 394
3 301 393 354
3 373 394 393
3 375 396 395
3 301 353 396
3 312 395 353
3 312 349 397
3 2 204 349
3 173 397 204
3 173 200 399
3 164 398 200
3 375 399 398
3 376 402 401
3 370 400 402
3 377 401 400
3 377 404 403
3 297 392 404
3 374 403 392
3 374 388 406
3 369 405 388
3 376 406 405
3 378 408 407
3 369 387 408
3 371 407 387
3 371 383 409
3 84 265 383
3 237 409 265
3 237 261 411
3 227 410 261
3 378 411 410
3 380 413 412
3 227 260 413
3 233 412 260
3 233 255 415
3 226 414 255
3 379 415 414
3 379 418 417
3 370 416 418
3 380 417 416
3 375 398 419
3 164 382 398
3 372 419 382
3 372 385 420
3 369 390 385
3 373 420 390
3 373 393 421
3 301 396 393
3 375 421 396
3 380 416 422
3 370 402 416
3 376 422 402
3 376 405 423
3 369 408 405
3 378 423 408
3 378 410 424
3 227 413 410
3 380 424 413
3 372 381 386
3 175 384 381
3 371 386 384
3 373 389 394
3 374 391 389
3 316 394 391
3 375 395 399
3 312 397 395
3 173 399 397
3 376 401 406
3 377 403 401
3 374 406 403
3 378 407 411
3 371 409 407
3 237 411 409
3 380 412 417
3 233 415 412
3 379 417 415
3 375 419 421
3 372 420 419
3 373 421 420
3 380 422 424
3 376 423 422
3 378 424 423
3 382 218 381
3 214 383 384
3 387 385 386
3 390 388 389
3 392 359 391
3 354 393 394
3 396 353 395
3 349 204 397
3 200 398 399
3 402 400 401
3 404 392 403
3 388 405 406
3 408 387 407
3 383 265 409
3 261 410 411
3 413 260 412
3 255 414 415
3 418 416 417
3 398 382 419
3 385 390 420
3 393 396 421
3 416 402 422
3 405 408 423
3 410 413 424
3 381 384 386
3 389 391 394
3 395 397 399
3 401 403 406
3 407 409 411
3 412 415 417
3 419 420 421
3 422 423 424
3 429 442 441
3 425 440 442
3 430 441 440
3 430 445 444
3 3 443 445
3 428 444 443
3 428 448 447
3 426 446 448
3 429 447 446
3 431 451 450
3 426 449 451
3 432 450 449
3 432 453 452
3 225 287 453
3 244 452 287
3 244 282 455
3 229 454 282
3 431 455 454
3 434 457 456
3 229 281 457
3 240 456 281
3 240 277 459
3 83 458 277
3 433 459 458
3 433 462 461
3 425 460 462
3 434 461 460
3 435 465 464
3 427 463 465
3 436 464 463
3 436 467 466
3 225 453 467
3 432 466 453
3 432 449 469
3 426 468 449
3 435 469 468
3 437 471 470
3 426 448 471
3 428 470 448
3 428 443 472
3 3 337 443
3 309 472 337
3 309 333 474
3 299 473 333
3 437 474 473
3 439 476 475
3 299 332 476
3 305 475 332
3 305 327 478
3 298 477 327
3 438 478 477
3 438 481 480
3 427 479 481
3 439 480 479
3 434 460 482
3 425 442 460
3 429 482 442
3 429 446 483
3 426 451 446
3 431 483 451
3 431 454 484
3 229 457 454
3 434 484 457
3 439 479 485
3 427 465 479
3 435 485 465
3 435 468 486
3 426 471 468
3 437 486 471
3 437 473 487
3 299 476 473
3 439 487 476
3 429 441 447
3 430 444 441
3 428 447 444
3 431 450 455
3 432 452 450
3 244 455 452
3 434 456 461
3 240 459 456
3 433 461 459
3 435 464 469
3 436 466 464
3 432 469 466
3 437 470 474
3 428 472 470
3 309 474 472
3 439 475 480
3 305 478 475
3 438 480 478
3 434 482 484
3 429 483 482
3 431 484 483
3 439 485 487
3 435 486 485
3 437 487 486
3 442 440 441
3 445 443 444
3 448 446 447
3 451 449 450
3 453 287 452
3 282 454 455
3 457 281 456
3 277 458 459
3 462 460 461
3 465 463 464
3 467 453 466
3 449 468 469
3 471 448 470
3 443 337 472
3 333 473 474
3 476 332 475
3 327 477 478
3 481 479 480
3 460 442 482
3 446 451 483
3 454 457 484
3 479 465 485
3 468 471 486
3 473 476 487
3 441 444 447
3 450 452 455
3 456 459 461
3 464 466 469
3 470 472 474
3 475 478 480
3 482 483 484
3 485 486 487
3 495 510 509
3 490 508 510
3 496 509 508
3 496 513 512
3 488 511 513
3 494 512 511
3 494 516 515
3 491 514 516
3 495 515 514
3 497 519 518
3 491 517 519
3 498 518 517
3 498 521 520
3 83 152 521
3 105 520 152
3 105 147 523
3 88 522 147
3 497 523 522
3 500 525 524
3 88 146 525
3 101 524 146
3 101 142 527
3 82 526 142
3 499 527 526
3 499 530 529
3 490 528 530
3 500 529 528
3 501 533 532
3 493 531 533
3 502 532 531
3 502 535 534
3 83 521 535
3 498 534 521
3 498 517 537
3 491 536 517
3 501 537 536
3 504 539 538
3 491 516 539
3 494 538 516
3 494 511 541
3 488 540 511
3 503 541 540
3 503 544 543
3 492 542 544
3 504 543 542
3 506 547 546
3 492 545 547
3 507 546 545
3 507 550 549
3 489 548 550
3 505 549 548
3 505 553 552
3 493 551 553
3 506 552 551
3 500 528 554
3 490 510 528
3 495 554 510
3 495 514 555
3 491 519 514
3 497 555 519
3 497 522 556
3 88 525 522
3 500 556 525
3 506 551 557
3 493 533 551
3 501 557 533
3 501 536 558
3 491 539 536
3 504 558 539
3 504 542 559
3 492 547 542
3 506 559 547
3 495 509 515
3 496 512 509
3 494 515 512
3 497 518 523
3 498 520 518
3 105 523 520
3 500 524 529
3 101 527 524
3 499 529 527
3 501 532 537
3 502 534 532
3 498 537 534
3 504 538 543
3 494 541 538
3 503 543 541
3 506 546 552
3 507 549 546
3 505 552 549
3 500 554 556
3 495 555 554
3 497 556 555
3 506 557 559
3 501 558 557
3 504 559 558
3 510 508 509
3 513 511 512
3 516 514 515
3 519 517 518
3 521 152 520
3 147 522 523
3 525 146 524
3 142 526 527
3 530 528 529
3 533 531 532
3 535 521 534
3 517 536 537
3 539 516 538
3 511 540 541
3 544 542 543
3 547 545 546
3 550 548 549
3 553 551 552
3 528 510 554
3 514 519 555
3 522 525 556
3 551 533 557
3 536 539 558
3 542 547 559
3 509 512 515
3 518 520 523
3 524 527 529
3 532 534 537
3 538 541 543
3 546 549 552
3 554 555 556
3 557 558 559
3 567 582 581
3 563 580 582
3 568 581 580
3 568 585 584
3 0 583 585
3 566 584 583
3 566 588 587
3 564 586 588
3 567 587 586
3 570 591 590
3 564 589 591
3 571 590 589
3 571 594 593
3 561 592 594
3 569 593 592
3 569 597 596
3 562 595 597
3 570 596 595
3 573 600 599
3 562 598 600
3 574 599 598
3 574 603 602
3 560 601 603
3 572 602 601
3 572 606 605
3 563 604 606
3 573 605 604
3 575 609 608
3 565 607 609
3 576 608 607
3 576 611 610
3 561 594 611
3 571 610 594
3 571 589 613
3 564 612 589
3 575 613 612
3 577 615 614
3 564 588 615
3 566 614 588
3 566 583 616
3 0 48 583
3 17 616 48
3 17 43 618
3 4 617 43
3 577 618 617
3 579 620 619
3 4 42 620
3 12 619 42
3 12 37 622
3 3 621 37
3 578 622 621
3 578 625 624
3 565 623 625
3 579 624 623
3 573 604 626
3 563 582 604
3 567 626 582
3 567 586 627
3 564 591 586
3 570 627 591
3 570 595 628
3 562 600 595
3 573 628 600
3 579 623 629
3 565 609 623
3 575 629 609
3 575 612 630
3 564 615 612
3 577 630 615
3 577 617 631
3 4 620 617
3 579 631 620
3 567 581 587
3 568 584 581
3 566 587 584
3 570 590 596
3 571 593 590
3 569 596 593
3 573 599 605
3 574 602 599
3 572 605 602
3 575 608 613
3 576 610 608
3 571 613 610
3 577 614 618
3 566 616 614
3 17 618 616
3 579 619 624
3 12 622 619
3 578 624 622
3 573 626 628
3 567 627 626
3 570 628 627
3 579 629 631
3 575 630 629
3 577 631 630
3 582 580 581
3 585 583 584
3 588 586 587
3 591 589 590
3 594 592 593
3 597 595 596
3 600 598 599
3 603 601 602
3 606 604 605
3 609 607 608
3 611 594 610
3 589 612 613
3 615 588 614
3 583 48 616
3 43 617 618
3 620 42 619
3 37 621 622
3 625 623 624
3 604 582 626
3 586 591 627
3 595 600 628
3 623 609 629
3 612 615 630
3 617 620 631
3 581 584 587
3 590 593 596
3 599 602 605
3 608 610 613
3 614 616 618
3 619 622 624
3 626 627 628
3 629 630 631
3 634 642 641
3 230 290 642
3 242 641 290
3 242 285 644
3 225 643 285
3 633 644 643
3 633 647 646
3 632 645 647
3 634 646 645
3 635 650 649
3 632 648 650
3 636 649 648
3 636 652 651
3 297 404 652
3 377 651 404
3 377 400 654
3 370 653 400
3 635 654 653
3 637 656 655
3 370 418 656
3 379 655 418
3 379 414 657
3 226 272 414
3 239 657 272
3 239 268 659
3 230 658 268
3 637 659 658
3 638 661 660
3 302 362 661
3 314 660 362
3 314 357 662
3 297 652 357
3 636 662 652
3 636 648 664
3 632 663 648
3 638 664 663
3 639 666 665
3 632 647 666
3 633 665 647
3 633 643 667
3 225 467 643
3 436 667 467
3 436 463 669
3 427 668 463
3 639 669 668
3 640 671 670
3 427 481 671
3 438 670 481
3 438 477 672
3 298 344 477
3 311 672 344
3 311 340 674
3 302 673 340
3 640 674 673
3 637 658 675
3 230 642 658
3 634 675 642
3 634 645 676
3 632 650 645
3 635 676 650
3 635 653 677
3 370 656 653
3 637 677 656
3 640 673 678
3 302 661 673
3 638 678 661
3 638 663 679
3 632 666 663
3 639 679 666
3 639 668 680
3 427 671 668
3 640 680 671
3 634 641 646
3 242 644 641
3 633 646 644
3 635 649 654
3 636 651 649
3 377 654 651
3 637 655 659
3 379 657 655
3 239 659 657
3 638 660 664
3 314 662 660
3 636 664 662
3 639 665 669
3 633 667 665
3 436 669 667
3 640 670 674
3 438 672 670
3 311 674 672
3 637 675 677
3 634 676 675
3 635 677 676
3 640 678 680
3 638 679 678
3 639 680 679
3 642 290 641
3 285 643 644
3 647 645 646
3 650 648 649
3 652 404 651
3 400 653 654
3 656 418 655
3 414 272 657
3 268 658 659
3 661 362 660
3 357 652 662
3 648 663 664
3 666 647 665
3 643 467 667
3 463 668 669
3 671 481 670
3 477 344 672
3 340 673 674
3 658 642 675
3 645 650 676
3 653 656 677
3 673 661 678
3 663 666 679
3 668 671 680
3 641 644 646
3 649 651 654
3 655 657 659
3 660 662 664
3 665 667 669
3 670 672 674
3 675 676 677
3 678 679 680
3 685 698 697
3 681 696 698
3 686 697 696
3 686 701 700
3 560 699 701
3 684 700 699
3 684 704 703
3 682 702 704
3 685 703 702
3 687 707 706
3 682 705 707
3 688 706 705
3 688 709 708
3 489 550 709
3 507 708 550
3 507 545 711
3 492 710 545
3 687 711 710
3 690 713 712
3 492 544 713
3 503 712 544
3 503 540 715
3 488 714 540
3 689 715 714
3 689 718 717
3 681 716 718
3 690 717 716
3 691 721 720
3 683 719 721
3 692 720 719
3 692 723 722
3 489 709 723
3 688 722 709
3 688 705 725
3 682 724 705
3 691 725 724
3 693 727 726
3 682 704 727
3 684 726 704
3 684 699 728
3 560 603 699
3 574 728 603
3 574 598 730
3 562 729 598
3 693 730 729
3 695 732 731
3 562 597 732
3 569 731 597
3 569 592 734
3 561 733 592
3 694 734 733
3 694 737 736
3 683 735 737
3 695 736 735
3 690 716 738
3 681 698 716
3 685 738 698
3 685 702 739
3 682 707 702
3 687 739 707
3 687 710 740
3 492 713 710
3 690 740 713
3 695 735 741
3 683 721 735
3 691 741 721
3 691 724 742
3 682 727 724
3 693 742 727
3 693 729 743
3 562 732 729
3 695 743 732
3 685 697 703
3 686 700 697
3 684 703 700
3 687 706 711
3 688 708 706
3 507 711 708
3 690 712 717
3 503 715 712
3 689 717 715
3 691 720 725
3 692 722 720
3 688 725 722
3 693 726 730
3 684 728 726
3 574 730 728
3 695 731 736
3 569 734 731
3 694 736 734
3 690 738 740
3 685 739 738
3 687 740 739
3 695 741 743
3 691 742 741
3 693 743 742
3 698 696 697
3 701 699 700
3 704 702 703
3 707 705 706
3 709 550 708
3 545 710 711
3 713 544 712
3 540 714 715
3 718 716 717
3 721 719 720
3 723 709 722
3 705 724 725
3 727 704 726
3 699 603 728
3 598 729 730
3 732 597 731
3 592 733 734
3 737 735 736
3 716 698 738
3 702 707 739
3 710 713 740
3 735 721 741
3 724 727 742
3 729 732 743
3 697 700 703
3 706 708 711
3 712 715 717
3 720 722 725
3 726 728 730
3 731 734 736
3 738 739 740
3 741 742 743
3 746 754 753
3 493 553 754
3 505 753 553
3 505 548 756
3 489 755 548
3 745 756 755
3 745 759 758
3 744 757 759
3 746 758 757
3 747 762 761
3 744 760 762
3 748 761 760
3 748 764 763
3 3 445 764
3 430 763 445
3 430 440 766
3 425 765 440
3 747 766 765
3 749 768 767
3 425 462 768
3 433 767 462
3 433 458 769
3 83 535 458
3 502 769 535
3 502 531 771
3 493 770 531
3 749 771 770
3 750 773 772
3 565 625 773
3 578 772 625
3 578 621 774
3 3 764 621
3 748 774 764
3 748 760 776
3 744 775 760
3 750 776 775
3 751 778 777
3 744 759 778
3 745 777 759
3 745 755 779
3 489 723 755
3 692 779 723
3 692 719 781
3 683 780 719
3 751 781 780
3 752 783 782
3 683 737 783
3 694 782 737
3 694 733 784
3 561 611 733
3 576 784 611
3 576 607 786
3 565 785 607
3 752 786 785
3 749 770 787
3 493 754 770
3 746 787 754
3 746 757 788
3 744 762 757
3 747 788 762
3 747 765 789
3 425 768 765
3 749 789 768
3 752 785 790
3 565 773 785
3 750 790 773
3 750 775 791
3 744 778 775
3 751 791 778
3 751 780 792
3 683 783 780
3 752 792 783
3 746 753 758
3 505 756 753
3 745 758 756
3 747 761 766
3 748 763 761
3 430 766 763
3 749 767 771
3 433 769 767
3 502 771 769
3 750 772 776
3 578 774 772
3 748 776 774
3 751 777 781
3 745 779 777
3 692 781 779
3 752 782 786
3 694 784 782
3 576 786 784
3 749 787 789
3 746 788 787
3 747 789 788
3 752 790 792
3 750 791 790
3 751 792 791
3 754 553 753
3 548 755 756
3 759 757 758
3 762 760 761
3 764 445 763
3 440 765 766
3 768 462 767
3 458 535 769
3 531 770 771
3 773 625 772
3 621 764 774
3 760 775 776
3 778 759 777
3 755 723 779
3 719 780 781
3 783 737 782
3 733 611 784
3 607 785 786
3 770 754 787
3 757 762 788
3 765 768 789
3 785 773 790
3 775 778 791
3 780 783 792
3 753 756 758
3 761 763 766
3 767 769 771
3 772 774 776
3 777 779 781
3 782 784 786
3 787 788 789
3 790 791 792
