ply
format ascii 1.0
comment File exported by Rhinoceros Version 5.0
element vertex 298
property float x
property float y
property float z
element face 462
property list uchar uint vertex_index
end_header
41.570171 86.630844 -0.008396
31.901630 93.468353 -0.008396
37.756218 89.917519 11.446172
22.233088 100.305847 -0.008396
33.975159 93.174797 22.920122
14.696828 106.398453 14.819024
30.884893 95.729927 32.377316
15.071226 106.927872 30.251644
27.715284 98.331543 41.794754
12.564546 107.143349 -0.008396
24.610279 101.224579 51.150082
12.081412 110.578918 60.170601
21.339287 103.643661 60.574738
1.200638 117.531204 45.684261
2.896004 113.980843 -0.008396
0.451842 116.472374 14.819024
2.518940 116.844963 59.861462
0.826242 117.001785 30.251644
-6.772539 120.818336 -0.008396
-6.815044 123.434151 59.536804
-13.793142 126.546280 14.819024
-13.418747 127.075699 30.251642
-16.441080 127.655838 -0.008396
-15.927500 130.338684 59.240582
-28.038132 136.620193 14.819024
-26.109623 134.493332 -0.008396
-27.663734 137.149612 30.251642
-25.489971 136.604721 58.931438
-35.778168 141.330826 -0.008396
-34.600113 143.511856 58.620564
-42.283119 146.694107 14.819024
-41.908722 147.223526 30.251642
-45.446709 148.168335 -0.008396
-44.164299 149.776169 58.326752
-56.528099 156.768021 14.819024
-55.115250 155.005829 -0.008396
-56.153702 157.297440 30.251642
-53.271629 156.687286 58.015869
-64.783798 161.843323 -0.008396
-66.910210 165.723801 46.175613
-62.718742 163.108536 57.530083
-71.212875 168.172424 34.629608
-75.515549 170.621063 23.083607
-74.452339 168.680817 -0.008396
-79.818214 173.069687 11.537608
-84.120872 175.518311 -0.008396
-45.122822 147.996307 111.981506
-34.540333 145.051056 112.752441
-43.780266 150.170502 123.312454
-23.979546 142.111359 113.512611
-28.233044 146.495117 127.311668
-13.418953 139.168747 114.264061
-42.459522 152.351883 134.640472
39.384022 124.455406 118.020241
50.083080 121.524780 118.774803
51.275978 123.707970 130.176682
-10.268162 144.978210 143.962769
-2.858464 136.224350 115.010071
7.702228 133.283356 115.766441
5.648970 140.079178 143.050369
28.823534 127.399803 117.274231
37.483231 130.281097 141.225540
18.262850 130.341110 116.518982
21.566101 135.180145 142.137955
-26.185295 149.877243 144.875183
-41.138771 154.533279 145.968475
52.607376 125.906952 141.596054
-39.818024 156.714661 157.296509
53.938774 128.105927 153.015411
-24.137543 153.259384 162.438690
39.530979 133.663239 158.789047
23.613848 138.562271 159.701462
7.696720 143.461304 160.613876
-8.220411 148.360336 161.526276
-38.497276 158.896057 168.624542
55.270168 130.304901 164.434784
41.578728 137.045349 176.352570
-22.089790 156.641510 180.002213
25.661600 141.944397 177.264984
-6.172661 151.742462 179.089798
9.744470 146.843430 178.177383
-37.176529 161.077438 179.952545
56.601570 132.503876 175.854156
-35.855782 163.258835 191.280579
57.932964 134.702866 187.273529
43.626480 140.427490 193.916077
11.792220 150.225555 195.740891
-4.124910 155.124603 196.653305
27.709351 145.326523 194.828491
59.264362 136.901840 198.692871
-23.521145 163.246613 207.248779
-34.535034 165.440216 202.608582
-12.507259 161.053009 211.888992
45.674232 143.809616 211.479584
-1.493372 158.859390 216.529175
29.757101 148.708649 212.392014
60.595764 139.100815 210.112259
9.520515 156.665787 221.169357
20.534405 154.472183 225.809540
61.927162 141.299805 221.531586
31.548290 152.278580 230.449753
42.562176 150.084961 235.089935
63.258553 143.498779 232.950974
53.576069 147.891357 239.730148
64.589951 145.697754 244.370331
19.092276 246.659424 38.109455
25.407875 236.773331 44.649635
21.964272 242.163757 28.582092
31.723480 226.887253 51.189819
38.025806 217.018921 57.742737
40.939507 212.461029 48.108334
32.824287 225.164124 33.792511
24.836266 237.668106 19.054728
43.839928 207.920868 38.486668
37.266945 218.209839 19.054726
27.708263 233.172455 9.527364
46.740353 203.380707 28.865000
36.795597 218.947662 0.000000
30.580257 228.676788 0.000000
49.640778 198.840561 19.243334
43.010941 209.218536 0.000000
49.226280 199.489395 0.000000
52.541199 194.300415 9.621666
55.441628 189.760254 0.000000
44.474922 206.917999 58.085133
50.914013 196.838623 58.483711
56.517254 188.076508 28.804119
56.242435 188.506699 44.122643
57.351463 186.757858 58.873650
62.615234 178.531097 0.000000
65.987106 173.252975 14.054766
63.792194 176.679855 59.280872
65.437454 174.113342 44.691822
65.712280 173.683151 29.373295
69.788841 167.301941 0.000000
70.229645 166.599091 59.670815
78.192513 154.147339 12.104014
76.962456 156.072784 0.000000
79.422562 152.221878 24.208027
80.652611 150.296417 36.312035
76.671684 156.522293 60.086761
81.882660 148.370972 48.416054
83.109459 146.441727 60.476612
80.502090 156.796890 67.339005
77.905869 167.160828 74.242760
67.840996 185.462479 76.540199
75.272743 177.590714 81.249031
60.376762 193.359802 71.859077
52.919765 201.252563 67.158798
45.450203 209.149033 62.484673
4.173626 210.421539 81.300842
14.326560 205.735825 81.290825
12.602486 212.049561 75.486343
21.046375 213.710114 69.611008
24.476635 201.043930 81.300842
29.490261 215.370667 63.735668
34.626484 196.351547 81.310654
44.779640 191.666321 81.300842
54.931145 186.977509 81.300842
65.084579 182.292908 81.286789
4.178854 210.432846 90.384415
4.178846 210.432846 99.537186
14.330350 205.744049 99.255646
24.481852 201.055237 98.974106
34.633354 196.366440 98.692558
44.784859 191.677628 98.411087
54.936363 186.988831 98.129463
65.087868 182.300018 97.847916
75.317917 177.543579 97.592056
76.941505 177.034348 164.993118
66.717674 181.779816 165.276825
77.149269 177.001602 176.583221
15.960164 205.223831 166.684570
5.808662 209.912628 166.966110
6.088752 209.823242 178.554047
56.566174 186.468613 165.558380
63.486771 183.329666 182.064270
26.111666 200.535034 166.403000
19.997732 203.416504 183.270401
46.414673 191.157425 165.839920
48.990425 190.025284 182.466293
34.494080 196.720886 182.868347
36.263172 195.846222 166.121460
77.429359 176.912201 188.171173
6.368842 209.733841 190.141983
20.426270 203.279724 200.999954
63.915306 183.192886 199.793793
34.922615 196.584106 200.597900
49.418964 189.888489 200.195847
6.648932 209.644440 201.729935
77.709457 176.822800 199.759109
6.929022 209.555038 213.317841
77.989548 176.733398 211.347046
64.343849 183.056107 217.523346
20.854809 203.142944 218.729462
35.351154 196.447327 218.327438
49.847504 189.751709 217.925385
78.269638 176.643997 222.934967
7.209114 209.465637 224.905792
64.772385 182.919312 235.252899
21.283348 203.006165 236.459030
50.276039 189.614929 235.654953
35.779694 196.310547 236.056976
78.549721 176.554611 234.522919
7.489204 209.376236 236.493729
7.769294 209.286835 248.081665
78.829811 176.465195 246.110870
65.200920 182.782532 252.982452
21.711887 202.869370 254.188568
50.704582 189.478149 253.384476
36.208233 196.173767 253.786530
79.109909 176.375809 257.698792
8.049386 209.197433 259.669617
59.086987 185.664017 269.849792
28.632481 199.730423 270.694458
69.238487 180.975204 269.568268
18.480978 204.419220 270.976013
48.935490 190.352814 270.131348
38.783985 195.041626 270.412903
79.389999 176.286407 269.286713
8.329473 209.108032 271.257538
75.614784 177.412048 108.800888
76.701340 177.065247 153.753708
75.886421 177.325348 120.039101
61.852928 183.851166 114.468567
76.429695 177.151947 142.515503
62.684135 183.585861 148.857468
76.167953 177.200500 131.276764
62.268528 183.718506 131.663010
48.187790 190.281464 149.259521
47.356579 190.546783 114.870605
47.772182 190.414124 132.065063
32.860233 197.242386 115.272659
33.691444 196.977081 149.661560
33.275837 197.109741 132.467102
19.195095 203.672699 150.063614
18.363886 203.938004 115.674698
18.779490 203.805359 132.869156
4.450476 210.346161 110.775085
5.537024 209.999344 155.727905
5.265388 210.086044 144.489700
4.722112 210.259445 122.013283
4.993750 210.172745 133.251495
73.140350 168.938034 158.379303
69.313850 161.050461 151.767700
65.487350 153.162888 145.156113
64.995590 153.429550 122.984093
71.145882 168.076935 101.140793
61.660851 145.275314 138.544525
66.953270 158.788071 104.665482
62.760658 149.499207 108.190163
57.834351 137.387756 131.932922
58.568043 140.210342 111.714844
54.007851 129.500183 125.321335
54.375435 130.921478 115.239525
76.802048 168.331543 91.666481
78.279526 159.271912 85.666542
68.564308 142.064087 95.499252
79.757019 150.212265 79.666611
81.234505 141.152634 73.666672
76.183151 129.931732 77.868271
82.662033 131.986557 67.636482
69.657364 127.817390 88.081329
63.159321 125.745819 98.320755
56.650700 123.658813 108.550308
40.857430 98.453308 29.361883
47.816868 104.037659 35.741585
31.587040 108.371048 61.743370
41.794380 113.086769 62.913696
54.776299 109.622002 42.121284
51.999744 117.804276 64.094009
61.735741 115.206345 48.500984
62.208202 122.519020 65.258499
68.695175 120.790695 54.880676
72.412788 127.237175 66.443001
75.654610 126.375038 61.260376
26.086723 106.618790 70.277779
30.908405 109.595238 79.957916
49.734226 118.269875 81.911972
35.652061 112.573364 89.676010
40.460003 115.549065 99.363152
45.217403 118.527931 109.074242
17.855536 124.126671 102.751869
17.101133 117.742928 88.379898
12.922144 109.200150 66.985695
4.622302 114.744583 73.404236
1.697786 128.628296 101.600479
-3.665249 120.286102 79.841141
-11.958946 125.829079 86.268875
-20.252647 131.372055 92.696602
-28.539925 136.914124 99.133385
-36.840034 142.458008 105.552048
-59.302536 159.961502 68.564880
-55.767105 156.974411 79.407249
-48.696239 151.000229 101.092003
-35.883999 143.119781 76.313721
-52.231667 153.987320 90.249619
-21.599453 133.042297 76.788033
3 0 1 2
3 2 1 3
3 2 3 4
3 4 3 5
3 6 7 8
3 4 7 6
3 4 5 7
3 3 9 5
3 10 11 12
3 8 7 10
3 10 13 11
3 10 7 13
3 5 9 14
3 5 14 15
3 11 13 16
3 7 17 13
3 5 15 7
3 7 15 17
3 14 18 15
3 16 13 19
3 15 18 20
3 17 15 21
3 15 20 21
3 17 21 13
3 18 22 20
3 13 21 19
3 19 21 23
3 20 22 24
3 22 25 24
3 20 24 21
3 21 24 26
3 21 26 23
3 23 26 27
3 25 28 24
3 27 26 29
3 24 28 30
3 24 30 26
3 26 30 31
3 28 32 30
3 26 31 29
3 29 31 33
3 30 32 34
3 32 35 34
3 30 34 31
3 31 34 36
3 31 37 33
3 31 36 37
3 35 38 34
3 37 36 39
3 37 39 40
3 36 41 39
3 34 42 36
3 36 42 41
3 34 38 42
3 38 43 44
3 38 44 42
3 43 45 44
3 46 47 48
3 47 49 50
3 47 50 48
3 49 51 50
3 48 50 52
3 53 54 55
3 51 56 50
3 57 58 59
3 60 53 61
3 62 60 63
3 51 57 56
3 53 55 61
3 50 64 52
3 58 62 63
3 57 59 56
3 58 63 59
3 60 61 63
3 50 56 64
3 52 64 65
3 55 66 61
3 64 67 65
3 61 66 68
3 64 69 67
3 61 68 70
3 61 71 63
3 59 63 72
3 56 73 64
3 61 70 71
3 63 71 72
3 64 73 69
3 59 73 56
3 59 72 73
3 67 69 74
3 68 75 70
3 70 75 76
3 69 77 74
3 73 77 69
3 71 70 78
3 73 79 77
3 71 78 72
3 70 76 78
3 73 72 80
3 73 80 79
3 72 78 80
3 74 77 81
3 75 82 76
3 81 77 83
3 76 82 84
3 76 84 85
3 80 86 79
3 79 86 87
3 80 78 88
3 77 79 87
3 80 88 86
3 76 85 78
3 78 85 88
3 84 89 85
3 83 90 91
3 77 90 83
3 77 87 90
3 87 92 90
3 85 89 93
3 87 94 92
3 88 85 95
3 86 88 95
3 85 93 95
3 89 96 93
3 87 86 94
3 86 97 94
3 86 95 97
3 95 98 97
3 96 99 93
3 95 100 98
3 95 93 100
3 93 101 100
3 93 99 101
3 99 102 103
3 99 103 101
3 102 104 103
3 105 106 107
3 108 109 110
3 106 108 111
3 106 111 107
3 108 110 111
3 107 111 112
3 110 113 111
3 111 113 114
3 111 114 112
3 112 114 115
3 113 116 114
3 115 114 117
3 115 117 118
3 114 116 119
3 114 120 117
3 114 119 120
3 119 121 120
3 119 122 121
3 122 123 121
3 109 124 110
3 110 124 113
3 113 124 125
3 116 126 119
3 113 125 127
3 113 127 116
3 116 127 126
3 125 128 127
3 119 126 122
3 122 129 123
3 122 126 130
3 122 130 129
3 127 128 131
3 127 131 132
3 126 133 130
3 127 132 126
3 126 132 133
3 129 130 134
3 131 135 132
3 130 136 134
3 134 136 137
3 133 138 130
3 130 138 136
3 133 132 139
3 133 139 138
3 132 135 140
3 132 140 141
3 132 141 139
3 140 142 141
3 142 140 143
3 143 140 135
3 143 135 144
3 144 135 131
3 144 145 146
3 144 131 145
3 131 128 145
3 145 128 147
3 128 125 147
3 147 125 148
3 125 124 148
3 148 124 149
3 124 109 149
3 150 151 152
3 152 151 153
3 151 154 153
3 153 154 155
3 155 149 109
3 155 154 156
3 155 156 149
3 156 148 149
3 156 157 148
3 157 147 148
3 157 158 147
3 158 145 147
3 158 159 145
3 159 146 145
3 160 161 162
3 160 151 150
3 160 162 151
3 151 162 163
3 151 163 154
3 163 164 154
3 154 164 156
3 156 164 165
3 156 165 157
3 157 165 166
3 157 166 158
3 166 167 158
3 158 167 159
3 167 168 159
3 159 168 146
3 169 170 171
3 172 173 174
3 170 175 176
3 177 172 178
3 179 180 175
3 177 181 182
3 170 176 171
3 172 174 178
3 179 182 181
3 179 181 180
3 177 178 181
3 175 180 176
3 171 176 183
3 174 184 178
3 178 184 185
3 176 186 183
3 176 180 186
3 181 187 180
3 180 188 186
3 180 187 188
3 178 187 181
3 178 185 187
3 184 189 185
3 183 186 190
3 185 189 191
3 186 192 190
3 186 193 192
3 185 191 194
3 186 188 193
3 187 195 188
3 188 196 193
3 185 195 187
3 185 194 195
3 188 195 196
3 192 193 197
3 191 198 194
3 193 199 197
3 194 198 200
3 193 196 199
3 196 201 199
3 195 202 196
3 196 202 201
3 195 194 202
3 194 200 202
3 197 199 203
3 198 204 200
3 204 205 200
3 203 199 206
3 199 207 206
3 200 205 208
3 199 201 207
3 201 209 207
3 202 210 201
3 201 210 209
3 202 200 210
3 200 208 210
3 206 207 211
3 205 212 208
3 207 209 213
3 210 208 214
3 207 215 211
3 208 212 216
3 209 210 217
3 210 218 217
3 209 217 213
3 210 214 218
3 207 213 215
3 208 216 214
3 211 215 219
3 212 220 216
3 168 167 221
3 222 170 169
3 223 221 224
3 225 226 222
3 227 228 225
3 223 228 227
3 222 226 170
3 221 167 224
3 223 224 228
3 225 228 226
3 170 226 175
3 167 166 224
3 226 229 175
3 224 166 230
3 224 231 228
3 224 230 231
3 228 229 226
3 228 231 229
3 175 229 179
3 166 165 230
3 230 165 164
3 230 164 232
3 229 182 179
3 229 233 182
3 230 234 231
3 231 234 229
3 230 232 234
3 229 234 233
3 164 163 232
3 182 233 177
3 233 235 177
3 232 163 236
3 234 237 233
3 233 237 235
3 234 232 237
3 232 236 237
3 163 162 236
3 177 235 172
3 236 162 238
3 235 239 172
3 235 237 240
3 236 241 237
3 237 242 240
3 237 241 242
3 236 238 241
3 235 240 239
3 172 239 173
3 162 161 238
3 169 243 222
3 222 243 244
3 222 244 225
3 225 244 245
3 225 245 227
3 227 245 246
3 221 247 168
3 227 246 223
3 245 248 246
3 221 249 247
3 223 249 221
3 223 246 249
3 246 250 249
3 248 251 246
3 246 252 250
3 246 251 252
3 251 253 252
3 252 253 254
3 253 54 254
3 168 247 255
3 255 247 249
3 255 249 256
3 256 249 257
3 256 257 258
3 259 260 261
3 249 250 257
3 258 260 259
3 258 257 260
3 257 262 260
3 257 250 252
3 257 263 262
3 257 252 263
3 252 264 263
3 252 254 264
3 254 54 264
3 4 265 6
3 6 265 8
3 8 265 266
3 10 267 12
3 8 267 10
3 8 266 267
3 266 268 267
3 266 269 268
3 269 270 268
3 269 271 270
3 271 272 270
3 271 273 272
3 273 274 272
3 273 275 274
3 275 261 274
3 12 267 276
3 276 267 277
3 267 268 277
3 277 278 279
3 277 268 278
3 268 270 278
3 279 278 280
3 281 264 54
3 280 264 281
3 270 272 278
3 280 263 264
3 280 278 263
3 278 262 263
3 278 272 262
3 272 260 262
3 272 274 260
3 274 261 260
3 54 53 281
3 281 53 60
3 281 60 280
3 280 60 282
3 279 283 277
3 280 282 279
3 279 282 283
3 276 284 12
3 60 62 282
3 277 283 276
3 276 283 284
3 283 285 284
3 282 62 58
3 282 58 286
3 282 286 283
3 283 287 285
3 58 57 286
3 283 286 287
3 286 288 287
3 286 57 51
3 286 289 288
3 286 51 289
3 51 290 289
3 51 49 290
3 49 291 290
3 49 47 291
3 47 46 291
3 40 37 292
3 292 37 33
3 292 33 293
3 294 291 46
3 293 33 295
3 293 295 296
3 33 29 295
3 296 295 294
3 294 295 291
3 295 290 291
3 295 29 27
3 295 27 297
3 295 289 290
3 295 297 289
3 27 23 297
3 297 288 289
3 297 287 288
3 297 23 19
3 297 19 287
3 19 285 287
3 19 16 285
3 16 284 285
3 16 11 284
3 11 12 284
