ply
format ascii 1.0
comment File exported by Rhinoceros Version 5.0
element vertex 298
property float x
property float y
property float z
element face 462
property list uchar uint vertex_index
end_header
28.570171 -83.369156 -0.008396
18.901630 -76.531647 -0.008396
24.756220 -80.082481 11.446172
9.233088 -69.694153 -0.008396
20.975161 -76.825203 22.920122
1.696828 -63.601543 14.819024
17.884893 -74.270073 32.377316
2.071226 -63.072124 30.251644
14.715284 -71.668457 41.794754
-0.435454 -62.856651 -0.008396
11.610280 -68.775421 51.150082
-0.918588 -59.421082 60.170601
8.339288 -66.356339 60.574738
-11.799362 -52.468800 45.684261
-10.103996 -56.019157 -0.008396
-12.548158 -53.527626 14.819024
-10.481060 -53.155037 59.861462
-12.173758 -52.998211 30.251644
-19.772539 -49.181664 -0.008396
-19.815044 -46.565849 59.536804
-26.793142 -43.453716 14.819024
-26.418747 -42.924297 30.251642
-29.441080 -42.344166 -0.008396
-28.927500 -39.661320 59.240582
-41.038132 -33.379803 14.819024
-39.109623 -35.506664 -0.008396
-40.663734 -32.850388 30.251642
-38.489971 -33.395275 58.931438
-48.778168 -28.669168 -0.008396
-47.600113 -26.488144 58.620564
-55.283119 -23.305893 14.819024
-54.908722 -22.776476 30.251642
-58.446709 -21.831673 -0.008396
-57.164299 -20.223825 58.326752
-69.528099 -13.231982 14.819024
-68.115250 -14.994176 -0.008396
-69.153702 -12.702564 30.251642
-66.271629 -13.312708 58.015869
-77.783798 -8.156680 -0.008396
-79.910210 -4.276196 46.175613
-75.718742 -6.891462 57.530083
-84.212875 -1.827568 34.629608
-88.515549 0.621058 23.083607
-87.452339 -1.319184 -0.008396
-92.818214 3.069686 11.537608
-97.120872 5.518314 -0.008396
-58.122822 -22.003696 111.981506
-47.540333 -24.948950 112.752441
-56.780266 -19.829502 123.312454
-36.979546 -27.888641 113.512611
-41.233044 -23.504881 127.311668
-26.418953 -30.831257 114.264061
-55.459522 -17.648113 134.640472
26.384022 -45.544594 118.020241
37.083080 -48.475216 118.774803
38.275978 -46.292030 130.176682
-23.268162 -25.021790 143.962769
-15.858464 -33.775654 115.010071
-5.297772 -36.716652 115.766441
-7.351030 -29.920826 143.050369
15.823534 -42.600197 117.274231
24.483231 -39.718903 141.225540
5.262850 -39.658890 116.518982
8.566100 -34.819862 142.137955
-39.185295 -20.122753 144.875183
-54.138771 -15.466726 145.968475
39.607376 -44.093052 141.596054
-52.818024 -13.285336 157.296509
40.938774 -41.894066 153.015411
-37.137543 -16.740622 162.438690
26.530979 -36.336769 158.789047
10.613848 -31.437733 159.701462
-5.303280 -26.538696 160.613876
-21.220411 -21.639660 161.526276
-51.497276 -11.103948 168.624542
42.270168 -39.695091 164.434784
28.578730 -32.954643 176.352570
-35.089790 -13.358492 180.002213
12.661600 -28.055605 177.264984
-19.172661 -18.257530 179.089798
-3.255530 -23.156567 178.177383
-50.176529 -8.922560 179.952545
43.601570 -37.496117 175.854156
-48.855782 -6.741172 191.280579
44.932964 -35.297138 187.273529
30.626480 -29.572510 193.916077
-1.207780 -19.774437 195.740891
-17.124910 -14.875400 196.653305
14.709350 -24.673473 194.828491
46.264362 -33.098160 198.692871
-36.521145 -6.753392 207.248779
-47.535034 -4.559784 202.608582
-25.507259 -8.946998 211.888992
32.674232 -26.190380 211.479584
-14.493372 -11.140604 216.529175
16.757101 -21.291344 212.392014
47.595764 -30.899179 210.112259
-3.479484 -13.334212 221.169357
7.534404 -15.527818 225.809540
48.927162 -28.700203 221.531586
18.548290 -17.721424 230.449753
29.562176 -19.915033 235.089935
50.258553 -26.501225 232.950974
40.576069 -22.108639 239.730148
51.589954 -24.302246 244.370331
6.092276 76.659416 38.109455
12.407876 66.773331 44.649635
8.964272 72.163765 28.582092
18.723480 56.887257 51.189819
25.025806 47.018917 57.742737
27.939505 42.461021 48.108334
19.824286 55.164116 33.792511
11.836266 67.668106 19.054728
30.839930 37.920868 38.486668
24.266947 48.209831 19.054726
14.708262 63.172455 9.527364
33.740353 33.380714 28.865000
23.795597 48.947662 0.000000
17.580257 58.676796 0.000000
36.640778 28.840565 19.243334
30.010941 39.218529 0.000000
36.226280 29.489391 0.000000
39.541199 24.300411 9.621666
42.441628 19.760258 0.000000
31.474924 36.917999 58.085133
37.914013 26.838619 58.483711
43.517254 18.076511 28.804119
43.242435 18.506702 44.122643
44.351463 16.757854 58.873650
49.615234 8.531100 0.000000
52.987103 3.252968 14.054766
50.792194 6.679862 59.280872
52.437450 4.113348 44.691822
52.712280 3.683158 29.373295
56.788841 -2.698060 0.000000
57.229645 -3.400906 59.670815
65.192513 -15.852668 12.104014
63.962456 -13.927218 0.000000
66.422562 -17.778122 24.208027
67.652611 -19.703575 36.312035
63.671684 -13.477714 60.086761
68.882660 -21.629028 48.416054
70.109459 -23.558277 60.476612
67.502090 -13.203104 67.339005
64.905869 -2.839170 74.242760
54.840996 15.462474 76.540199
62.272743 7.590720 81.249031
47.376762 23.359798 71.859077
39.919765 31.252569 67.158798
32.450203 39.149029 62.484673
-8.826374 40.421532 81.300842
1.326560 35.735825 81.290825
-0.397514 42.049553 75.486343
8.046374 43.710106 69.611008
11.476634 31.043924 81.300842
16.490261 45.370659 63.735668
21.626484 26.351543 81.310654
31.779638 21.666315 81.300842
41.931145 16.977509 81.300842
52.084583 12.292904 81.286789
-8.821146 40.432850 90.384415
-8.821154 40.432850 99.537186
1.330350 35.744045 99.255646
11.481852 31.055241 98.974106
21.633356 26.366436 98.692558
31.784857 21.677631 98.411087
41.936363 16.988827 98.129463
52.087868 12.300024 97.847916
62.317921 7.543580 97.592056
63.941505 7.034346 164.993118
53.717674 11.779810 165.276825
64.149269 7.001606 176.583221
2.960164 35.223835 166.684570
-7.191338 39.912636 166.966110
-6.911248 39.823238 178.554047
43.566174 16.468616 165.558380
50.486771 13.329666 182.064270
13.111666 30.535030 166.403000
6.997732 33.416504 183.270401
33.414673 21.157421 165.839920
35.990425 20.025280 182.466293
21.494078 26.720892 182.868347
23.263172 25.846226 166.121460
64.429359 6.912206 188.171173
-6.631158 39.733837 190.141983
7.426270 33.279720 200.999954
50.915306 13.192884 199.793793
21.922615 26.584110 200.597900
36.418964 19.888496 200.195847
-6.351068 39.644436 201.729935
64.709457 6.822806 199.759109
-6.070978 39.555038 213.317841
64.989548 6.733406 211.347046
51.343849 13.056100 217.523346
7.854808 33.142937 218.729462
22.351154 26.447327 218.327438
36.847504 19.751713 217.925385
65.269638 6.644004 222.934967
-5.790886 39.465633 224.905792
51.772388 12.919318 235.252899
8.283348 33.006157 236.459030
37.276039 19.614931 235.654953
22.779694 26.310543 236.056976
65.549721 6.554604 234.522919
-5.510796 39.376236 236.493729
-5.230706 39.286835 248.081665
65.829811 6.465202 246.110870
52.200920 12.782534 252.982452
8.711886 32.869373 254.188568
37.704582 19.478146 253.384476
23.208233 26.173761 253.786530
66.109909 6.375802 257.698792
-4.950614 39.197433 259.669617
46.086987 15.664012 269.849792
15.632480 29.730427 270.694458
56.238487 10.975206 269.568268
5.480978 34.419228 270.976013
35.935490 20.352818 270.131348
25.783985 25.041622 270.412903
66.389999 6.286402 269.286713
-4.670526 39.108032 271.257538
62.614784 7.412056 108.800888
63.701336 7.065246 153.753708
62.886421 7.325354 120.039101
48.852928 13.851166 114.468567
63.429695 7.151948 142.515503
49.684135 13.585856 148.857468
63.167957 7.200504 131.276764
49.268528 13.718510 131.663010
35.187790 20.281469 149.259521
34.356579 20.546780 114.870605
34.772182 20.414124 132.065063
19.860233 27.242392 115.272659
20.691442 26.977081 149.661560
20.275837 27.109737 132.467102
6.195096 33.672695 150.063614
5.363886 33.938004 115.674698
5.779490 33.805351 132.869156
-8.549524 40.346153 110.775085
-7.462976 39.999340 155.727905
-7.734612 40.086040 144.489700
-8.277888 40.259449 122.013283
-8.006250 40.172745 133.251495
60.140350 -1.061972 158.379303
56.313850 -8.949542 151.767700
52.487347 -16.837112 145.156113
51.995586 -16.570452 122.984093
58.145882 -1.923058 101.140793
48.660851 -24.724684 138.544525
53.953270 -11.211924 104.665482
49.760658 -20.500793 108.190163
44.834351 -32.612251 131.932922
45.568043 -29.789661 111.714844
41.007851 -40.499821 125.321335
41.375435 -39.078529 115.239525
63.802044 -1.668456 91.666481
65.279526 -10.728096 85.666542
55.564308 -27.935913 95.499252
66.757019 -19.787733 79.666611
68.234505 -28.847372 73.666672
63.183155 -40.068275 77.868271
69.662033 -38.013443 67.636482
56.657360 -42.182610 88.081329
50.159321 -44.254185 98.320755
43.650700 -46.341187 108.550308
27.857431 -71.546692 29.361883
34.816868 -65.962341 35.741585
18.587040 -61.628956 61.743370
28.794378 -56.913231 62.913696
41.776299 -60.377998 42.121284
38.999744 -52.195728 64.094009
48.735741 -54.793652 48.500984
49.208202 -47.480980 65.258499
55.695171 -49.209305 54.880676
59.412788 -42.762825 66.443001
62.654610 -43.624962 61.260376
13.086724 -63.381207 70.277779
17.908405 -60.404762 79.957916
36.734226 -51.730125 81.911972
22.652063 -57.426636 89.676010
27.460003 -54.450935 99.363152
32.217403 -51.472069 109.074242
4.855536 -45.873329 102.751869
4.101134 -52.257072 88.379898
-0.077856 -60.799854 66.985695
-8.377698 -55.255421 73.404236
-11.302214 -41.371708 101.600479
-16.665249 -49.713898 79.841141
-24.958946 -44.170921 86.268875
-33.252647 -38.627941 92.696602
-41.539925 -33.085869 99.133385
-49.840034 -27.541986 105.552048
-72.302536 -10.038492 68.564880
-68.767105 -13.025586 79.407249
-61.696239 -18.999775 101.092003
-48.883999 -26.880219 76.313721
-65.231667 -16.012678 90.249619
-34.599453 -36.957695 76.788033
3 0 1 2
3 2 1 3
3 2 3 4
3 4 3 5
3 6 7 8
3 4 7 6
3 4 5 7
3 3 9 5
3 10 11 12
3 8 7 10
3 10 13 11
3 10 7 13
3 5 9 14
3 5 14 15
3 11 13 16
3 7 17 13
3 5 15 7
3 7 15 17
3 14 18 15
3 16 13 19
3 15 18 20
3 17 15 21
3 15 20 21
3 17 21 13
3 18 22 20
3 13 21 19
3 19 21 23
3 20 22 24
3 22 25 24
3 20 24 21
3 21 24 26
3 21 26 23
3 23 26 27
3 25 28 24
3 27 26 29
3 24 28 30
3 24 30 26
3 26 30 31
3 28 32 30
3 26 31 29
3 29 31 33
3 30 32 34
3 32 35 34
3 30 34 31
3 31 34 36
3 31 37 33
3 31 36 37
3 35 38 34
3 37 36 39
3 37 39 40
3 36 41 39
3 34 42 36
3 36 42 41
3 34 38 42
3 38 43 44
3 38 44 42
3 43 45 44
3 46 47 48
3 47 49 50
3 47 50 48
3 49 51 50
3 48 50 52
3 53 54 55
3 51 56 50
3 57 58 59
3 60 53 61
3 62 60 63
3 51 57 56
3 53 55 61
3 50 64 52
3 58 62 63
3 57 59 56
3 58 63 59
3 60 61 63
3 50 56 64
3 52 64 65
3 55 66 61
3 64 67 65
3 61 66 68
3 64 69 67
3 61 68 70
3 61 71 63
3 59 63 72
3 56 73 64
3 61 70 71
3 63 71 72
3 64 73 69
3 59 73 56
3 59 72 73
3 67 69 74
3 68 75 70
3 70 75 76
3 69 77 74
3 73 77 69
3 71 70 78
3 73 79 77
3 71 78 72
3 70 76 78
3 73 72 80
3 73 80 79
3 72 78 80
3 74 77 81
3 75 82 76
3 81 77 83
3 76 82 84
3 76 84 85
3 80 86 79
3 79 86 87
3 80 78 88
3 77 79 87
3 80 88 86
3 76 85 78
3 78 85 88
3 84 89 85
3 83 90 91
3 77 90 83
3 77 87 90
3 87 92 90
3 85 89 93
3 87 94 92
3 88 85 95
3 86 88 95
3 85 93 95
3 89 96 93
3 87 86 94
3 86 97 94
3 86 95 97
3 95 98 97
3 96 99 93
3 95 100 98
3 95 93 100
3 93 101 100
3 93 99 101
3 99 102 103
3 99 103 101
3 102 104 103
3 105 106 107
3 108 109 110
3 106 108 111
3 106 111 107
3 108 110 111
3 107 111 112
3 110 113 111
3 111 113 114
3 111 114 112
3 112 114 115
3 113 116 114
3 115 114 117
3 115 117 118
3 114 116 119
3 114 120 117
3 114 119 120
3 119 121 120
3 119 122 121
3 122 123 121
3 109 124 110
3 110 124 113
3 113 124 125
3 116 126 119
3 113 125 127
3 113 127 116
3 116 127 126
3 125 128 127
3 119 126 122
3 122 129 123
3 122 126 130
3 122 130 129
3 127 128 131
3 127 131 132
3 126 133 130
3 127 132 126
3 126 132 133
3 129 130 134
3 131 135 132
3 130 136 134
3 134 136 137
3 133 138 130
3 130 138 136
3 133 132 139
3 133 139 138
3 132 135 140
3 132 140 141
3 132 141 139
3 140 142 141
3 142 140 143
3 143 140 135
3 143 135 144
3 144 135 131
3 144 145 146
3 144 131 145
3 131 128 145
3 145 128 147
3 128 125 147
3 147 125 148
3 125 124 148
3 148 124 149
3 124 109 149
3 150 151 152
3 152 151 153
3 151 154 153
3 153 154 155
3 155 149 109
3 155 154 156
3 155 156 149
3 156 148 149
3 156 157 148
3 157 147 148
3 157 158 147
3 158 145 147
3 158 159 145
3 159 146 145
3 160 161 162
3 160 151 150
3 160 162 151
3 151 162 163
3 151 163 154
3 163 164 154
3 154 164 156
3 156 164 165
3 156 165 157
3 157 165 166
3 157 166 158
3 166 167 158
3 158 167 159
3 167 168 159
3 159 168 146
3 169 170 171
3 172 173 174
3 170 175 176
3 177 172 178
3 179 180 175
3 177 181 182
3 170 176 171
3 172 174 178
3 179 182 181
3 179 181 180
3 177 178 181
3 175 180 176
3 171 176 183
3 174 184 178
3 178 184 185
3 176 186 183
3 176 180 186
3 181 187 180
3 180 188 186
3 180 187 188
3 178 187 181
3 178 185 187
3 184 189 185
3 183 186 190
3 185 189 191
3 186 192 190
3 186 193 192
3 185 191 194
3 186 188 193
3 187 195 188
3 188 196 193
3 185 195 187
3 185 194 195
3 188 195 196
3 192 193 197
3 191 198 194
3 193 199 197
3 194 198 200
3 193 196 199
3 196 201 199
3 195 202 196
3 196 202 201
3 195 194 202
3 194 200 202
3 197 199 203
3 198 204 200
3 204 205 200
3 203 199 206
3 199 207 206
3 200 205 208
3 199 201 207
3 201 209 207
3 202 210 201
3 201 210 209
3 202 200 210
3 200 208 210
3 206 207 211
3 205 212 208
3 207 209 213
3 210 208 214
3 207 215 211
3 208 212 216
3 209 210 217
3 210 218 217
3 209 217 213
3 210 214 218
3 207 213 215
3 208 216 214
3 211 215 219
3 212 220 216
3 168 167 221
3 222 170 169
3 223 221 224
3 225 226 222
3 227 228 225
3 223 228 227
3 222 226 170
3 221 167 224
3 223 224 228
3 225 228 226
3 170 226 175
3 167 166 224
3 226 229 175
3 224 166 230
3 224 231 228
3 224 230 231
3 228 229 226
3 228 231 229
3 175 229 179
3 166 165 230
3 230 165 164
3 230 164 232
3 229 182 179
3 229 233 182
3 230 234 231
3 231 234 229
3 230 232 234
3 229 234 233
3 164 163 232
3 182 233 177
3 233 235 177
3 232 163 236
3 234 237 233
3 233 237 235
3 234 232 237
3 232 236 237
3 163 162 236
3 177 235 172
3 236 162 238
3 235 239 172
3 235 237 240
3 236 241 237
3 237 242 240
3 237 241 242
3 236 238 241
3 235 240 239
3 172 239 173
3 162 161 238
3 169 243 222
3 222 243 244
3 222 244 225
3 225 244 245
3 225 245 227
3 227 245 246
3 221 247 168
3 227 246 223
3 245 248 246
3 221 249 247
3 223 249 221
3 223 246 249
3 246 250 249
3 248 251 246
3 246 252 250
3 246 251 252
3 251 253 252
3 252 253 254
3 253 54 254
3 168 247 255
3 255 247 249
3 255 249 256
3 256 249 257
3 256 257 258
3 259 260 261
3 249 250 257
3 258 260 259
3 258 257 260
3 257 262 260
3 257 250 252
3 257 263 262
3 257 252 263
3 252 264 263
3 252 254 264
3 254 54 264
3 4 265 6
3 6 265 8
3 8 265 266
3 10 267 12
3 8 267 10
3 8 266 267
3 266 268 267
3 266 269 268
3 269 270 268
3 269 271 270
3 271 272 270
3 271 273 272
3 273 274 272
3 273 275 274
3 275 261 274
3 12 267 276
3 276 267 277
3 267 268 277
3 277 278 279
3 277 268 278
3 268 270 278
3 279 278 280
3 281 264 54
3 280 264 281
3 270 272 278
3 280 263 264
3 280 278 263
3 278 262 263
3 278 272 262
3 272 260 262
3 272 274 260
3 274 261 260
3 54 53 281
3 281 53 60
3 281 60 280
3 280 60 282
3 279 283 277
3 280 282 279
3 279 282 283
3 276 284 12
3 60 62 282
3 277 283 276
3 276 283 284
3 283 285 284
3 282 62 58
3 282 58 286
3 282 286 283
3 283 287 285
3 58 57 286
3 283 286 287
3 286 288 287
3 286 57 51
3 286 289 288
3 286 51 289
3 51 290 289
3 51 49 290
3 49 291 290
3 49 47 291
3 47 46 291
3 40 37 292
3 292 37 33
3 292 33 293
3 294 291 46
3 293 33 295
3 293 295 296
3 33 29 295
3 296 295 294
3 294 295 291
3 295 290 291
3 295 29 27
3 295 27 297
3 295 289 290
3 295 297 289
3 27 23 297
3 297 288 289
3 297 287 288
3 297 23 19
3 297 19 287
3 19 285 287
3 19 16 285
3 16 284 285
3 16 11 284
3 11 12 284
