ply
format ascii 1.0
comment File exported by Rhinoceros Version 4.0
element vertex 289
property float x
property float y
property float z
property float nx
property float ny
property float nz
property uchar red
property uchar green
property uchar blue
element face 256
property list uchar uint vertex_index
element material 1
property uchar ambient_red
property uchar ambient_green
property uchar ambient_blue
property uchar ambient_alpha
property uchar diffuse_red
property uchar diffuse_green
property uchar diffuse_blue
property uchar diffuse_alpha
property uchar emissive_red
property uchar emissive_green
property uchar emissive_blue
property uchar emissive_alpha
property uchar specular_red
property uchar specular_green
property uchar specular_blue
property uchar specular_alpha
property double shine
property double transparency
end_header
-22.053318 -25.478987 -11.679676 -0.593332 -0.511236 0.621768 255 255 255
-22.053318 -22.169893 -9.128895 -0.538131 -0.492240 0.684189 255 255 255
-22.053318 -18.860800 -6.918217 -0.479035 -0.460748 0.747152 255 255 255
-22.053318 -15.551707 -5.047644 -0.418540 -0.415112 0.807779 255 255 255
-22.053318 -12.242615 -3.517175 -0.360213 -0.354711 0.862802 255 255 255
-22.053318 -8.933521 -2.326811 -0.308357 -0.280290 0.909040 255 255 255
-22.053318 -5.624429 -1.476550 -0.267392 -0.194016 0.943854 255 255 255
-22.053318 -2.315336 -0.966394 -0.241111 -0.099224 0.965412 255 255 255
-22.053318 0.993757 -0.796342 -0.232054 -0.000000 0.972703 255 255 255
-22.053318 4.302850 -0.966394 -0.241111 0.099224 0.965412 255 255 255
-22.053318 7.611943 -1.476550 -0.267392 0.194016 0.943854 255 255 255
-22.053318 10.921036 -2.326810 -0.308357 0.280290 0.909040 255 255 255
-22.053318 14.230129 -3.517175 -0.360213 0.354711 0.862802 255 255 255
-22.053318 17.539221 -5.047644 -0.418540 0.415112 0.807779 255 255 255
-22.053318 20.848314 -6.918217 -0.479035 0.460748 0.747152 255 255 255
-22.053318 24.157408 -9.128895 -0.538131 0.492240 0.684189 255 255 255
-22.053318 27.466501 -11.679676 -0.593332 0.511236 0.621768 255 255 255
-19.202087 -25.478987 -9.128895 -0.568599 -0.461492 0.680971 255 255 255
-19.202087 -22.169893 -7.026493 -0.509398 -0.438916 0.740180 255 255 255
-19.202087 -18.860800 -5.204411 -0.447293 -0.405250 0.797309 255 255 255
-19.202087 -15.551707 -3.662649 -0.385244 -0.359914 0.849735 255 255 255
-19.202087 -12.242615 -2.401208 -0.326966 -0.303286 0.895048 255 255 255
-19.202087 -8.933521 -1.420087 -0.276455 -0.236708 0.931419 255 255 255
-19.202087 -5.624429 -0.719287 -0.237415 -0.162268 0.957760 255 255 255
-19.202087 -2.315336 -0.298806 -0.212765 -0.082477 0.973616 255 255 255
-19.202087 0.993757 -0.158646 -0.204341 -0.000000 0.978900 255 255 255
-19.202087 4.302850 -0.298806 -0.212765 0.082477 0.973616 255 255 255
-19.202087 7.611943 -0.719287 -0.237415 0.162268 0.957760 255 255 255
-19.202087 10.921036 -1.420087 -0.276455 0.236708 0.931419 255 255 255
-19.202087 14.230129 -2.401208 -0.326966 0.303286 0.895048 255 255 255
-19.202087 17.539221 -3.662649 -0.385244 0.359914 0.849735 255 255 255
-19.202087 20.848314 -5.204411 -0.447293 0.405250 0.797309 255 255 255
-19.202087 24.157408 -7.026493 -0.509398 0.438916 0.740180 255 255 255
-19.202087 27.466501 -9.128894 -0.568599 0.461492 0.680971 255 255 255
-16.350857 -25.478987 -6.918217 -0.530890 -0.409784 0.741777 255 255 255
-16.350857 -22.169893 -5.204411 -0.469052 -0.384359 0.795147 255 255 255
-16.350857 -18.860800 -3.719112 -0.405982 -0.349809 0.844282 255 255 255
-16.350857 -15.551707 -2.462321 -0.344799 -0.306352 0.887278 255 255 255
-16.350857 -12.242615 -1.434037 -0.288943 -0.254891 0.922791 255 255 255
-16.350857 -8.933521 -0.634261 -0.241731 -0.196840 0.950168 255 255 255
-16.350857 -5.624429 -0.062992 -0.205963 -0.133877 0.969359 255 255 255
-16.350857 -2.315336 0.279769 -0.183687 -0.067718 0.980649 255 255 255
-16.350857 0.993757 0.394023 -0.176128 -0.000000 0.984367 255 255 255
-16.350857 4.302850 0.279769 -0.183687 0.067718 0.980649 255 255 255
-16.350857 7.611943 -0.062992 -0.205963 0.133877 0.969359 255 255 255
-16.350857 10.921036 -0.634261 -0.241731 0.196840 0.950168 255 255 255
-16.350857 14.230129 -1.434037 -0.288943 0.254891 0.922791 255 255 255
-16.350857 17.539221 -2.462321 -0.344799 0.306352 0.887278 255 255 255
-16.350857 20.848314 -3.719112 -0.405982 0.349809 0.844282 255 255 255
-16.350857 24.157408 -5.204411 -0.469052 0.384359 0.795147 255 255 255
-16.350857 27.466501 -6.918217 -0.530890 0.409784 0.741777 255 255 255
-13.499625 -25.478987 -5.047644 -0.478278 -0.358013 0.801920 255 255 255
-13.499625 -22.169893 -3.662649 -0.416315 -0.330831 0.846896 255 255 255
-13.499625 -18.860800 -2.462321 -0.355203 -0.296803 0.886419 255 255 255
-13.499625 -15.551707 -1.446658 -0.297771 -0.256570 0.919513 255 255 255
-13.499625 -12.242615 -0.615661 -0.246788 -0.211122 0.945792 255 255 255
-13.499625 -8.933521 0.030670 -0.204671 -0.161623 0.965395 255 255 255
-13.499625 -5.624429 0.492335 -0.173306 -0.109244 0.978791 255 255 255
-13.499625 -2.315336 0.769333 -0.153992 -0.055054 0.986537 255 255 255
-13.499625 0.993757 0.861667 -0.147474 -0.000000 0.989066 255 255 255
-13.499625 4.302850 0.769333 -0.153992 0.055054 0.986537 255 255 255
-13.499625 7.611943 0.492335 -0.173306 0.109244 0.978791 255 255 255
-13.499625 10.921036 0.030670 -0.204671 0.161623 0.965395 255 255 255
-13.499625 14.230129 -0.615661 -0.246788 0.211122 0.945792 255 255 255
-13.499625 17.539221 -1.446658 -0.297771 0.256570 0.919513 255 255 255
-13.499625 20.848314 -2.462321 -0.355203 0.296803 0.886419 255 255 255
-13.499625 24.157408 -3.662649 -0.416315 0.330831 0.846896 255 255 255
-13.499625 27.466501 -5.047644 -0.478278 0.358013 0.801920 255 255 255
-10.648395 -25.478987 -3.517175 -0.409581 -0.308796 0.858422 255 255 255
-10.648395 -22.169893 -2.401208 -0.351221 -0.281111 0.893096 255 255 255
-10.648395 -18.860800 -1.434037 -0.295669 -0.248835 0.922313 255 255 255
-10.648395 -15.551707 -0.615661 -0.245052 -0.212665 0.945898 255 255 255
-10.648395 -12.242615 0.053919 -0.201246 -0.173400 0.964071 255 255 255
-10.648395 -8.933521 0.574704 -0.165758 -0.131837 0.977314 255 255 255
-10.648395 -5.624429 0.946693 -0.139696 -0.088692 0.986214 255 255 255
-10.648395 -2.315336 1.169886 -0.123789 -0.044575 0.991307 255 255 255
-10.648395 0.993757 1.244284 -0.118444 -0.000000 0.992961 255 255 255
-10.648395 4.302850 1.169886 -0.123789 0.044575 0.991307 255 255 255
-10.648395 7.611943 0.946693 -0.139696 0.088692 0.986214 255 255 255
-10.648395 10.921036 0.574704 -0.165758 0.131837 0.977314 255 255 255
-10.648395 14.230129 0.053919 -0.201246 0.173400 0.964071 255 255 255
-10.648395 17.539221 -0.615661 -0.245052 0.212665 0.945898 255 255 255
-10.648395 20.848314 -1.434037 -0.295669 0.248835 0.922313 255 255 255
-10.648395 24.157408 -2.401208 -0.351221 0.281111 0.893096 255 255 255
-10.648395 27.466501 -3.517175 -0.409581 0.308796 0.858422 255 255 255
-7.797163 -25.478987 -2.326810 -0.324851 -0.265325 0.907786 255 255 255
-7.797163 -22.169893 -1.420087 -0.274753 -0.238233 0.931534 255 255 255
-7.797163 -18.860800 -0.634261 -0.228633 -0.208452 0.950934 255 255 255
-7.797163 -15.551707 0.030670 -0.187740 -0.176504 0.966230 255 255 255
-7.797163 -12.242615 0.574704 -0.153088 -0.142898 0.977826 255 255 255
-7.797163 -8.933521 0.997841 -0.125448 -0.108091 0.986194 255 255 255
-7.797163 -5.624429 1.300082 -0.105364 -0.072469 0.991790 255 255 255
-7.797163 -2.315336 1.481427 -0.093186 -0.036351 0.994985 255 255 255
-7.797163 0.993757 1.541875 -0.089107 -0.000000 0.996022 255 255 255
-7.797163 4.302850 1.481427 -0.093186 0.036351 0.994985 255 255 255
-7.797163 7.611943 1.300082 -0.105364 0.072469 0.991790 255 255 255
-7.797163 10.921036 0.997841 -0.125448 0.108091 0.986194 255 255 255
-7.797163 14.230129 0.574704 -0.153088 0.142898 0.977826 255 255 255
-7.797163 17.539221 0.030670 -0.187740 0.176504 0.966230 255 255 255
-7.797163 20.848314 -0.634261 -0.228633 0.208452 0.950934 255 255 255
-7.797163 24.157408 -1.420087 -0.274753 0.238233 0.931534 255 255 255
-7.797163 27.466501 -2.326810 -0.324851 0.265325 0.907786 255 255 255
-4.945932 -25.478987 -1.476550 -0.225777 -0.231014 0.946392 255 255 255
-4.945932 -22.169893 -0.719287 -0.188834 -0.205118 0.960348 255 255 255
-4.945932 -18.860800 -0.062992 -0.155743 -0.177884 0.971649 255 255 255
-4.945932 -15.551707 0.492335 -0.127015 -0.149596 0.980555 255 255 255
-4.945932 -12.242615 0.946693 -0.103052 -0.120506 0.987349 255 255 255
-4.945932 -8.933521 1.300082 -0.084150 -0.090833 0.992304 255 255 255
-4.945932 -5.624429 1.552503 -0.070517 -0.060760 0.995658 255 255 255
-4.945932 -2.315336 1.703956 -0.062287 -0.030439 0.997594 255 255 255
-4.945932 0.993757 1.754440 -0.059536 -0.000000 0.998226 255 255 255
-4.945932 4.302850 1.703956 -0.062287 0.030439 0.997594 255 255 255
-4.945932 7.611943 1.552503 -0.070517 0.060760 0.995658 255 255 255
-4.945932 10.921036 1.300082 -0.084150 0.090833 0.992304 255 255 255
-4.945932 14.230129 0.946693 -0.103052 0.120506 0.987349 255 255 255
-4.945932 17.539221 0.492335 -0.127015 0.149596 0.980555 255 255 255
-4.945932 20.848314 -0.062992 -0.155743 0.177884 0.971649 255 255 255
-4.945932 24.157408 -0.719287 -0.188834 0.205118 0.960348 255 255 255
-4.945932 27.466501 -1.476550 -0.225777 0.231014 0.946392 255 255 255
-2.094701 -25.478987 -0.966394 -0.115829 -0.208961 0.971040 255 255 255
-2.094701 -22.169893 -0.298806 -0.096170 -0.184184 0.978176 255 255 255
-2.094701 -18.860800 0.279769 -0.078873 -0.158836 0.984149 255 255 255
-2.094701 -15.551707 0.769334 -0.064057 -0.133022 0.989041 255 255 255
-2.094701 -12.242615 1.169886 -0.051817 -0.106835 0.992926 255 255 255
-2.094701 -8.933521 1.481427 -0.042226 -0.080364 0.995871 255 255 255
-2.094701 -5.624429 1.703956 -0.035339 -0.053687 0.997932 255 255 255
-2.094701 -2.315336 1.837473 -0.031192 -0.026876 0.999152 255 255 255
-2.094701 0.993757 1.881979 -0.029808 -0.000000 0.999556 255 255 255
-2.094701 4.302850 1.837473 -0.031192 0.026876 0.999152 255 255 255
-2.094701 7.611943 1.703956 -0.035339 0.053687 0.997932 255 255 255
-2.094701 10.921036 1.481427 -0.042226 0.080364 0.995871 255 255 255
-2.094701 14.230129 1.169886 -0.051817 0.106835 0.992926 255 255 255
-2.094701 17.539221 0.769334 -0.064057 0.133022 0.989041 255 255 255
-2.094701 20.848314 0.279770 -0.078873 0.158836 0.984149 255 255 255
-2.094701 24.157408 -0.298806 -0.096170 0.184184 0.978176 255 255 255
-2.094701 27.466501 -0.966394 -0.115829 0.208961 0.971040 255 255 255
0.756530 -25.478987 -0.796341 0.000000 -0.201348 0.979520 255 255 255
0.756530 -22.169893 -0.158646 0.000000 -0.177022 0.984207 255 255 255
0.756530 -18.860800 0.394023 0.000000 -0.152368 0.988324 255 255 255
0.756530 -15.551707 0.861667 0.000000 -0.127426 0.991848 255 255 255
0.756530 -12.242615 1.244284 0.000000 -0.102240 0.994760 255 255 255
0.756530 -8.933521 1.541875 0.000000 -0.076856 0.997042 255 255 255
0.756530 -5.624429 1.754440 0.000000 -0.051322 0.998682 255 255 255
0.756530 -2.315336 1.881979 0.000000 -0.025686 0.999670 255 255 255
0.756530 0.993757 1.924492 0.000000 -0.000000 1.000000 255 255 255
0.756530 4.302850 1.881979 0.000000 0.025686 0.999670 255 255 255
0.756530 7.611943 1.754440 0.000000 0.051322 0.998682 255 255 255
0.756530 10.921036 1.541875 0.000000 0.076856 0.997042 255 255 255
0.756530 14.230129 1.244284 0.000000 0.102240 0.994760 255 255 255
0.756530 17.539221 0.861667 0.000000 0.127426 0.991848 255 255 255
0.756530 20.848314 0.394023 0.000000 0.152368 0.988324 255 255 255
0.756530 24.157408 -0.158646 0.000000 0.177022 0.984207 255 255 255
0.756530 27.466501 -0.796341 0.000000 0.201348 0.979520 255 255 255
3.607761 -25.478987 -0.966394 0.115829 -0.208961 0.971040 255 255 255
3.607761 -22.169893 -0.298806 0.096170 -0.184184 0.978176 255 255 255
3.607761 -18.860800 0.279769 0.078873 -0.158836 0.984149 255 255 255
3.607761 -15.551707 0.769334 0.064057 -0.133022 0.989041 255 255 255
3.607761 -12.242615 1.169886 0.051817 -0.106835 0.992926 255 255 255
3.607761 -8.933521 1.481427 0.042226 -0.080364 0.995871 255 255 255
3.607761 -5.624429 1.703956 0.035339 -0.053687 0.997932 255 255 255
3.607761 -2.315336 1.837473 0.031192 -0.026876 0.999152 255 255 255
3.607761 0.993757 1.881979 0.029808 -0.000000 0.999556 255 255 255
3.607761 4.302850 1.837473 0.031192 0.026876 0.999152 255 255 255
3.607761 7.611943 1.703956 0.035339 0.053687 0.997932 255 255 255
3.607761 10.921036 1.481427 0.042226 0.080364 0.995871 255 255 255
3.607761 14.230129 1.169886 0.051817 0.106835 0.992926 255 255 255
3.607761 17.539221 0.769334 0.064057 0.133022 0.989041 255 255 255
3.607761 20.848314 0.279770 0.078873 0.158836 0.984149 255 255 255
3.607761 24.157408 -0.298806 0.096170 0.184184 0.978176 255 255 255
3.607761 27.466501 -0.966394 0.115829 0.208961 0.971040 255 255 255
6.458992 -25.478987 -1.476550 0.225777 -0.231014 0.946392 255 255 255
6.458992 -22.169893 -0.719287 0.188834 -0.205118 0.960348 255 255 255
6.458992 -18.860800 -0.062992 0.155743 -0.177884 0.971649 255 255 255
6.458992 -15.551707 0.492335 0.127015 -0.149596 0.980555 255 255 255
6.458992 -12.242615 0.946693 0.103052 -0.120506 0.987349 255 255 255
6.458992 -8.933521 1.300082 0.084150 -0.090833 0.992304 255 255 255
6.458992 -5.624429 1.552503 0.070517 -0.060760 0.995658 255 255 255
6.458992 -2.315336 1.703956 0.062287 -0.030439 0.997594 255 255 255
6.458992 0.993757 1.754440 0.059536 -0.000000 0.998226 255 255 255
6.458992 4.302850 1.703956 0.062287 0.030439 0.997594 255 255 255
6.458992 7.611943 1.552503 0.070517 0.060760 0.995658 255 255 255
6.458992 10.921036 1.300082 0.084150 0.090833 0.992304 255 255 255
6.458992 14.230129 0.946693 0.103052 0.120506 0.987349 255 255 255
6.458992 17.539221 0.492335 0.127015 0.149596 0.980555 255 255 255
6.458992 20.848314 -0.062992 0.155743 0.177884 0.971649 255 255 255
6.458992 24.157408 -0.719287 0.188834 0.205118 0.960348 255 255 255
6.458992 27.466501 -1.476550 0.225777 0.231014 0.946392 255 255 255
9.310223 -25.478987 -2.326810 0.324851 -0.265325 0.907786 255 255 255
9.310223 -22.169893 -1.420087 0.274753 -0.238233 0.931534 255 255 255
9.310223 -18.860800 -0.634261 0.228633 -0.208452 0.950934 255 255 255
9.310223 -15.551707 0.030670 0.187740 -0.176504 0.966230 255 255 255
9.310223 -12.242615 0.574704 0.153088 -0.142898 0.977826 255 255 255
9.310223 -8.933521 0.997841 0.125448 -0.108091 0.986194 255 255 255
9.310223 -5.624429 1.300082 0.105364 -0.072469 0.991790 255 255 255
9.310223 -2.315336 1.481427 0.093186 -0.036351 0.994985 255 255 255
9.310223 0.993757 1.541875 0.089107 -0.000000 0.996022 255 255 255
9.310223 4.302850 1.481427 0.093186 0.036351 0.994985 255 255 255
9.310223 7.611943 1.300082 0.105364 0.072469 0.991790 255 255 255
9.310223 10.921036 0.997841 0.125448 0.108091 0.986194 255 255 255
9.310223 14.230129 0.574704 0.153088 0.142898 0.977826 255 255 255
9.310223 17.539221 0.030670 0.187740 0.176504 0.966230 255 255 255
9.310223 20.848314 -0.634261 0.228633 0.208452 0.950934 255 255 255
9.310223 24.157408 -1.420087 0.274753 0.238233 0.931534 255 255 255
9.310223 27.466501 -2.326810 0.324851 0.265325 0.907786 255 255 255
12.161454 -25.478987 -3.517175 0.409581 -0.308796 0.858422 255 255 255
12.161454 -22.169893 -2.401208 0.351221 -0.281111 0.893096 255 255 255
12.161454 -18.860800 -1.434037 0.295669 -0.248835 0.922313 255 255 255
12.161454 -15.551707 -0.615661 0.245052 -0.212665 0.945898 255 255 255
12.161454 -12.242615 0.053919 0.201246 -0.173400 0.964071 255 255 255
12.161454 -8.933521 0.574704 0.165758 -0.131837 0.977314 255 255 255
12.161454 -5.624429 0.946693 0.139696 -0.088692 0.986214 255 255 255
12.161454 -2.315336 1.169886 0.123789 -0.044575 0.991307 255 255 255
12.161454 0.993757 1.244284 0.118444 -0.000000 0.992961 255 255 255
12.161454 4.302850 1.169886 0.123789 0.044575 0.991307 255 255 255
12.161454 7.611943 0.946693 0.139696 0.088692 0.986214 255 255 255
12.161454 10.921036 0.574704 0.165758 0.131837 0.977314 255 255 255
12.161454 14.230129 0.053919 0.201246 0.173400 0.964071 255 255 255
12.161454 17.539221 -0.615661 0.245052 0.212665 0.945898 255 255 255
12.161454 20.848314 -1.434037 0.295669 0.248835 0.922313 255 255 255
12.161454 24.157408 -2.401208 0.351221 0.281111 0.893096 255 255 255
12.161454 27.466501 -3.517175 0.409581 0.308796 0.858422 255 255 255
15.012685 -25.478987 -5.047644 0.478278 -0.358013 0.801920 255 255 255
15.012685 -22.169893 -3.662649 0.416315 -0.330831 0.846896 255 255 255
15.012685 -18.860800 -2.462321 0.355203 -0.296803 0.886419 255 255 255
15.012685 -15.551707 -1.446658 0.297771 -0.256570 0.919513 255 255 255
15.012685 -12.242615 -0.615661 0.246788 -0.211122 0.945792 255 255 255
15.012685 -8.933521 0.030670 0.204671 -0.161623 0.965395 255 255 255
15.012685 -5.624429 0.492335 0.173306 -0.109244 0.978791 255 255 255
15.012685 -2.315336 0.769333 0.153992 -0.055054 0.986537 255 255 255
15.012685 0.993757 0.861667 0.147474 -0.000000 0.989066 255 255 255
15.012685 4.302850 0.769333 0.153992 0.055054 0.986537 255 255 255
15.012685 7.611943 0.492335 0.173306 0.109244 0.978791 255 255 255
15.012685 10.921036 0.030670 0.204671 0.161623 0.965395 255 255 255
15.012685 14.230129 -0.615661 0.246788 0.211122 0.945792 255 255 255
15.012685 17.539221 -1.446658 0.297771 0.256570 0.919513 255 255 255
15.012685 20.848314 -2.462321 0.355203 0.296803 0.886419 255 255 255
15.012685 24.157408 -3.662649 0.416315 0.330831 0.846896 255 255 255
15.012685 27.466501 -5.047644 0.478278 0.358013 0.801920 255 255 255
17.863916 -25.478987 -6.918217 0.530890 -0.409784 0.741777 255 255 255
17.863916 -22.169893 -5.204411 0.469052 -0.384359 0.795147 255 255 255
17.863916 -18.860800 -3.719112 0.405982 -0.349809 0.844282 255 255 255
17.863916 -15.551707 -2.462321 0.344799 -0.306352 0.887278 255 255 255
17.863916 -12.242615 -1.434037 0.288943 -0.254891 0.922791 255 255 255
17.863916 -8.933521 -0.634261 0.241731 -0.196840 0.950168 255 255 255
17.863916 -5.624429 -0.062992 0.205963 -0.133877 0.969359 255 255 255
17.863916 -2.315336 0.279769 0.183687 -0.067718 0.980649 255 255 255
17.863916 0.993757 0.394023 0.176128 -0.000000 0.984367 255 255 255
17.863916 4.302850 0.279769 0.183687 0.067718 0.980649 255 255 255
17.863916 7.611943 -0.062992 0.205963 0.133877 0.969359 255 255 255
17.863916 10.921036 -0.634261 0.241731 0.196840 0.950168 255 255 255
17.863916 14.230129 -1.434037 0.288943 0.254891 0.922791 255 255 255
17.863916 17.539221 -2.462321 0.344799 0.306352 0.887278 255 255 255
17.863916 20.848314 -3.719112 0.405982 0.349809 0.844282 255 255 255
17.863916 24.157408 -5.204411 0.469052 0.384359 0.795147 255 255 255
17.863916 27.466501 -6.918217 0.530890 0.409784 0.741777 255 255 255
20.715147 -25.478987 -9.128895 0.568599 -0.461492 0.680971 255 255 255
20.715147 -22.169893 -7.026493 0.509398 -0.438916 0.740180 255 255 255
20.715147 -18.860800 -5.204411 0.447293 -0.405250 0.797309 255 255 255
20.715147 -15.551707 -3.662649 0.385244 -0.359914 0.849735 255 255 255
20.715147 -12.242615 -2.401208 0.326966 -0.303286 0.895048 255 255 255
20.715147 -8.933521 -1.420087 0.276455 -0.236708 0.931419 255 255 255
20.715147 -5.624429 -0.719287 0.237415 -0.162268 0.957760 255 255 255
20.715147 -2.315336 -0.298806 0.212765 -0.082477 0.973616 255 255 255
20.715147 0.993757 -0.158646 0.204341 -0.000000 0.978900 255 255 255
20.715147 4.302850 -0.298806 0.212765 0.082477 0.973616 255 255 255
20.715147 7.611943 -0.719287 0.237415 0.162268 0.957760 255 255 255
20.715147 10.921036 -1.420087 0.276455 0.236708 0.931419 255 255 255
20.715147 14.230129 -2.401208 0.326966 0.303286 0.895048 255 255 255
20.715147 17.539221 -3.662649 0.385244 0.359914 0.849735 255 255 255
20.715147 20.848314 -5.204411 0.447293 0.405250 0.797309 255 255 255
20.715147 24.157408 -7.026493 0.509398 0.438916 0.740180 255 255 255
20.715147 27.466501 -9.128894 0.568599 0.461492 0.680971 255 255 255
23.566378 -25.478987 -11.679676 0.593332 -0.511236 0.621768 255 255 255
23.566378 -22.169893 -9.128895 0.538131 -0.492240 0.684189 255 255 255
23.566378 -18.860800 -6.918217 0.479035 -0.460748 0.747152 255 255 255
23.566378 -15.551707 -5.047644 0.418540 -0.415112 0.807779 255 255 255
23.566378 -12.242615 -3.517175 0.360213 -0.354711 0.862802 255 255 255
23.566378 -8.933521 -2.326811 0.308357 -0.280290 0.909040 255 255 255
23.566378 -5.624429 -1.476550 0.267392 -0.194016 0.943854 255 255 255
23.566378 -2.315336 -0.966394 0.241111 -0.099224 0.965412 255 255 255
23.566378 0.993757 -0.796342 0.232054 -0.000000 0.972703 255 255 255
23.566378 4.302850 -0.966394 0.241111 0.099224 0.965412 255 255 255
23.566378 7.611943 -1.476550 0.267392 0.194016 0.943854 255 255 255
23.566378 10.921036 -2.326810 0.308357 0.280290 0.909040 255 255 255
23.566378 14.230129 -3.517175 0.360213 0.354711 0.862802 255 255 255
23.566378 17.539221 -5.047644 0.418540 0.415112 0.807779 255 255 255
23.566378 20.848314 -6.918217 0.479035 0.460748 0.747152 255 255 255
23.566378 24.157408 -9.128895 0.538131 0.492240 0.684189 255 255 255
23.566378 27.466501 -11.679676 0.593332 0.511236 0.621768 255 255 255
4 18 1 0 17
4 19 2 1 18
4 20 3 2 19
4 21 4 3 20
4 22 5 4 21
4 23 6 5 22
4 24 7 6 23
4 25 8 7 24
4 26 9 8 25
4 27 10 9 26
4 28 11 10 27
4 29 12 11 28
4 30 13 12 29
4 31 14 13 30
4 32 15 14 31
4 33 16 15 32
4 35 18 17 34
4 36 19 18 35
4 37 20 19 36
4 38 21 20 37
4 39 22 21 38
4 40 23 22 39
4 41 24 23 40
4 42 25 24 41
4 43 26 25 42
4 44 27 26 43
4 45 28 27 44
4 46 29 28 45
4 47 30 29 46
4 48 31 30 47
4 49 32 31 48
4 50 33 32 49
4 52 35 34 51
4 53 36 35 52
4 54 37 36 53
4 55 38 37 54
4 56 39 38 55
4 57 40 39 56
4 58 41 40 57
4 59 42 41 58
4 60 43 42 59
4 61 44 43 60
4 62 45 44 61
4 63 46 45 62
4 64 47 46 63
4 65 48 47 64
4 66 49 48 65
4 67 50 49 66
4 69 52 51 68
4 70 53 52 69
4 71 54 53 70
4 72 55 54 71
4 73 56 55 72
4 74 57 56 73
4 75 58 57 74
4 76 59 58 75
4 77 60 59 76
4 78 61 60 77
4 79 62 61 78
4 80 63 62 79
4 81 64 63 80
4 82 65 64 81
4 83 66 65 82
4 84 67 66 83
4 86 69 68 85
4 87 70 69 86
4 88 71 70 87
4 89 72 71 88
4 90 73 72 89
4 91 74 73 90
4 92 75 74 91
4 93 76 75 92
4 94 77 76 93
4 95 78 77 94
4 96 79 78 95
4 97 80 79 96
4 98 81 80 97
4 99 82 81 98
4 100 83 82 99
4 101 84 83 100
4 103 86 85 102
4 104 87 86 103
4 105 88 87 104
4 106 89 88 105
4 107 90 89 106
4 108 91 90 107
4 109 92 91 108
4 110 93 92 109
4 111 94 93 110
4 112 95 94 111
4 113 96 95 112
4 114 97 96 113
4 115 98 97 114
4 116 99 98 115
4 117 100 99 116
4 118 101 100 117
4 120 103 102 119
4 121 104 103 120
4 122 105 104 121
4 123 106 105 122
4 124 107 106 123
4 125 108 107 124
4 126 109 108 125
4 127 110 109 126
4 128 111 110 127
4 129 112 111 128
4 130 113 112 129
4 131 114 113 130
4 132 115 114 131
4 133 116 115 132
4 134 117 116 133
4 135 118 117 134
4 137 120 119 136
4 138 121 120 137
4 139 122 121 138
4 140 123 122 139
4 141 124 123 140
4 142 125 124 141
4 143 126 125 142
4 144 127 126 143
4 145 128 127 144
4 146 129 128 145
4 147 130 129 146
4 148 131 130 147
4 149 132 131 148
4 150 133 132 149
4 151 134 133 150
4 152 135 134 151
4 154 137 136 153
4 155 138 137 154
4 156 139 138 155
4 157 140 139 156
4 158 141 140 157
4 159 142 141 158
4 160 143 142 159
4 161 144 143 160
4 162 145 144 161
4 163 146 145 162
4 164 147 146 163
4 165 148 147 164
4 166 149 148 165
4 167 150 149 166
4 168 151 150 167
4 169 152 151 168
4 171 154 153 170
4 172 155 154 171
4 173 156 155 172
4 174 157 156 173
4 175 158 157 174
4 176 159 158 175
4 177 160 159 176
4 178 161 160 177
4 179 162 161 178
4 180 163 162 179
4 181 164 163 180
4 182 165 164 181
4 183 166 165 182
4 184 167 166 183
4 185 168 167 184
4 186 169 168 185
4 188 171 170 187
4 189 172 171 188
4 190 173 172 189
4 191 174 173 190
4 192 175 174 191
4 193 176 175 192
4 194 177 176 193
4 195 178 177 194
4 196 179 178 195
4 197 180 179 196
4 198 181 180 197
4 199 182 181 198
4 200 183 182 199
4 201 184 183 200
4 202 185 184 201
4 203 186 185 202
4 205 188 187 204
4 206 189 188 205
4 207 190 189 206
4 208 191 190 207
4 209 192 191 208
4 210 193 192 209
4 211 194 193 210
4 212 195 194 211
4 213 196 195 212
4 214 197 196 213
4 215 198 197 214
4 216 199 198 215
4 217 200 199 216
4 218 201 200 217
4 219 202 201 218
4 220 203 202 219
4 222 205 204 221
4 223 206 205 222
4 224 207 206 223
4 225 208 207 224
4 226 209 208 225
4 227 210 209 226
4 228 211 210 227
4 229 212 211 228
4 230 213 212 229
4 231 214 213 230
4 232 215 214 231
4 233 216 215 232
4 234 217 216 233
4 235 218 217 234
4 236 219 218 235
4 237 220 219 236
4 239 222 221 238
4 240 223 222 239
4 241 224 223 240
4 242 225 224 241
4 243 226 225 242
4 244 227 226 243
4 245 228 227 244
4 246 229 228 245
4 247 230 229 246
4 248 231 230 247
4 249 232 231 248
4 250 233 232 249
4 251 234 233 250
4 252 235 234 251
4 253 236 235 252
4 254 237 236 253
4 256 239 238 255
4 257 240 239 256
4 258 241 240 257
4 259 242 241 258
4 260 243 242 259
4 261 244 243 260
4 262 245 244 261
4 263 246 245 262
4 264 247 246 263
4 265 248 247 264
4 266 249 248 265
4 267 250 249 266
4 268 251 250 267
4 269 252 251 268
4 270 253 252 269
4 271 254 253 270
4 273 256 255 272
4 274 257 256 273
4 275 258 257 274
4 276 259 258 275
4 277 260 259 276
4 278 261 260 277
4 279 262 261 278
4 280 263 262 279
4 281 264 263 280
4 282 265 264 281
4 283 266 265 282
4 284 267 266 283
4 285 268 267 284
4 286 269 268 285
4 287 270 269 286
4 288 271 270 287
0 0 0 0 255 255 255 0 0 0 0 0 255 255 255 0 0.000000 0.000000
