ply
format ascii 1.0
comment File exported by Rhinoceros Version 4.0
element vertex 128
property float x
property float y
property float z
property float nx
property float ny
property float nz
property uchar red
property uchar green
property uchar blue
element face 59
property list uchar uint vertex_index
element material 1
property uchar ambient_red
property uchar ambient_green
property uchar ambient_blue
property uchar ambient_alpha
property uchar diffuse_red
property uchar diffuse_green
property uchar diffuse_blue
property uchar diffuse_alpha
property uchar emissive_red
property uchar emissive_green
property uchar emissive_blue
property uchar emissive_alpha
property uchar specular_red
property uchar specular_green
property uchar specular_blue
property uchar specular_alpha
property double shine
property double transparency
end_header
2.760676 4.201156 18.448277 -0.035701 0.000000 0.999363 255 255 255
2.760676 42.920822 18.448277 -0.035701 0.000000 0.999363 255 255 255
3.317296 4.201156 18.456194 0.007258 -0.000000 0.999974 255 255 255
3.317296 42.920822 18.456194 0.007258 -0.000000 0.999974 255 255 255
3.873742 4.201156 18.440197 0.050204 -0.000000 0.998739 255 255 255
3.873742 42.920822 18.440197 0.050204 -0.000000 0.998739 255 255 255
4.428988 4.201156 18.400312 0.093057 -0.000000 0.995661 255 255 255
4.428988 42.920822 18.400312 0.093057 -0.000000 0.995661 255 255 255
4.982008 4.201156 18.336617 0.135738 -0.000000 0.990745 255 255 255
4.982008 42.920822 18.336617 0.135738 -0.000000 0.990745 255 255 255
5.531781 4.201156 18.249224 0.178169 -0.000000 0.984000 255 255 255
5.531781 42.920822 18.249224 0.178169 -0.000000 0.984000 255 255 255
6.077293 4.201156 18.138298 0.220271 -0.000000 0.975439 255 255 255
6.077293 42.920822 18.138298 0.220271 -0.000000 0.975439 255 255 255
6.617537 4.201156 18.004042 0.261966 -0.000000 0.965077 255 255 255
6.617537 42.920822 18.004042 0.261966 -0.000000 0.965077 255 255 255
7.151515 4.201156 17.846704 0.303178 -0.000000 0.952934 255 255 255
7.151515 42.920822 17.846704 0.303178 -0.000000 0.952934 255 255 255
7.678243 4.201156 17.666574 0.343830 -0.000000 0.939032 255 255 255
7.678243 42.920822 17.666574 0.343830 -0.000000 0.939032 255 255 255
8.196747 4.201156 17.463987 0.383848 -0.000000 0.923396 255 255 255
8.196747 42.920822 17.463987 0.383848 -0.000000 0.923396 255 255 255
8.706071 4.201156 17.239315 0.423157 -0.000000 0.906056 255 255 255
8.706071 42.920822 17.239315 0.423157 -0.000000 0.906056 255 255 255
9.205274 4.201156 16.992973 0.461685 -0.000000 0.887044 255 255 255
9.205274 42.920822 16.992973 0.461685 -0.000000 0.887044 255 255 255
9.693435 4.201156 16.725416 0.499361 -0.000000 0.866394 255 255 255
9.693435 42.920822 16.725416 0.499361 -0.000000 0.866394 255 255 255
10.169653 4.201156 16.437138 0.536115 -0.000000 0.844145 255 255 255
10.169653 42.920822 16.437138 0.536115 -0.000000 0.844145 255 255 255
10.633049 4.201156 16.128670 0.571879 -0.000000 0.820338 255 255 255
10.633049 42.920822 16.128670 0.571879 -0.000000 0.820338 255 255 255
11.082767 4.201156 15.800582 0.606588 -0.000000 0.795017 255 255 255
11.082767 42.920822 15.800582 0.606588 -0.000000 0.795017 255 255 255
11.517978 4.201156 15.453480 0.640177 -0.000000 0.768228 255 255 255
11.517978 42.920822 15.453480 0.640177 -0.000000 0.768228 255 255 255
11.937878 4.201156 15.088005 0.672584 -0.000000 0.740021 255 255 255
11.937878 42.920822 15.088005 0.672584 -0.000000 0.740021 255 255 255
12.341692 4.201156 14.704830 0.703750 -0.000000 0.710448 255 255 255
12.341692 42.920822 14.704830 0.703750 -0.000000 0.710448 255 255 255
12.728674 4.201156 14.304665 0.733617 -0.000000 0.679563 255 255 255
12.728674 42.920822 14.304665 0.733617 -0.000000 0.679563 255 255 255
13.098110 4.201156 13.888245 0.762129 -0.000000 0.647425 255 255 255
13.098110 42.920822 13.888245 0.762129 -0.000000 0.647425 255 255 255
13.449319 4.201156 13.456342 0.789235 -0.000000 0.614091 255 255 255
13.449319 42.920822 13.456342 0.789235 -0.000000 0.614091 255 255 255
13.781651 4.201156 13.009751 0.814884 -0.000000 0.579624 255 255 255
13.781651 42.920822 13.009751 0.814884 -0.000000 0.579624 255 255 255
14.094496 4.201156 12.549298 0.839029 -0.000000 0.544086 255 255 255
14.094496 42.920822 12.549298 0.839029 -0.000000 0.544086 255 255 255
14.387272 4.201156 12.075832 0.861625 -0.000000 0.507545 255 255 255
14.387272 42.920822 12.075832 0.861625 -0.000000 0.507545 255 255 255
14.659441 4.201156 11.590227 0.882631 -0.000000 0.470066 255 255 255
14.659441 42.920822 11.590227 0.882631 -0.000000 0.470066 255 255 255
14.910501 4.201156 11.093380 0.902008 -0.000000 0.431720 255 255 255
14.910501 42.920822 11.093380 0.902008 -0.000000 0.431720 255 255 255
15.139987 4.201156 10.586206 0.919719 -0.000000 0.392577 255 255 255
15.139987 42.920822 10.586206 0.919719 -0.000000 0.392577 255 255 255
15.139987 4.201156 10.586206 1.000000 -0.000000 0.000000 255 255 255
15.139987 42.920822 10.586206 1.000000 -0.000000 0.000000 255 255 255
15.139987 4.201156 0.000000 1.000000 -0.000000 0.000000 255 255 255
15.139987 42.920822 0.000000 1.000000 -0.000000 0.000000 255 255 255
15.139987 4.201156 0.000000 0.000000 0.000000 -1.000000 255 255 255
15.139987 42.920822 0.000000 0.000000 0.000000 -1.000000 255 255 255
-9.618634 4.201156 0.000000 0.000000 0.000000 -1.000000 255 255 255
-9.618634 42.920822 0.000000 0.000000 0.000000 -1.000000 255 255 255
-9.618634 4.201156 0.000000 -1.000000 0.000000 0.000000 255 255 255
-9.618634 42.920822 0.000000 -1.000000 0.000000 0.000000 255 255 255
-9.618634 4.201156 10.586206 -1.000000 0.000000 0.000000 255 255 255
-9.618634 42.920822 10.586206 -1.000000 0.000000 0.000000 255 255 255
-9.618634 4.201156 10.586206 -0.919719 0.000000 0.392577 255 255 255
-9.618634 42.920822 10.586206 -0.919719 0.000000 0.392577 255 255 255
-9.389148 4.201156 11.093380 -0.902008 0.000000 0.431720 255 255 255
-9.389148 42.920822 11.093380 -0.902008 0.000000 0.431720 255 255 255
-9.138088 4.201156 11.590227 -0.882631 0.000000 0.470066 255 255 255
-9.138088 42.920822 11.590227 -0.882631 0.000000 0.470066 255 255 255
-8.865919 4.201156 12.075832 -0.861625 0.000000 0.507545 255 255 255
-8.865919 42.920822 12.075832 -0.861625 0.000000 0.507545 255 255 255
-8.573142 4.201156 12.549298 -0.839029 0.000000 0.544086 255 255 255
-8.573142 42.920822 12.549298 -0.839029 0.000000 0.544086 255 255 255
-8.260299 4.201156 13.009751 -0.814884 0.000000 0.579624 255 255 255
-8.260299 42.920822 13.009751 -0.814884 0.000000 0.579624 255 255 255
-7.927966 4.201156 13.456342 -0.789235 0.000000 0.614091 255 255 255
-7.927966 42.920822 13.456342 -0.789235 0.000000 0.614091 255 255 255
-7.576757 4.201156 13.888245 -0.762129 0.000000 0.647425 255 255 255
-7.576757 42.920822 13.888245 -0.762129 0.000000 0.647425 255 255 255
-7.207321 4.201156 14.304665 -0.733617 0.000000 0.679563 255 255 255
-7.207321 42.920822 14.304665 -0.733617 0.000000 0.679563 255 255 255
-6.820339 4.201156 14.704830 -0.703750 0.000000 0.710448 255 255 255
-6.820339 42.920822 14.704830 -0.703750 0.000000 0.710448 255 255 255
-6.416525 4.201156 15.088005 -0.672584 0.000000 0.740021 255 255 255
-6.416525 42.920822 15.088005 -0.672584 0.000000 0.740021 255 255 255
-5.996625 4.201156 15.453480 -0.640177 0.000000 0.768228 255 255 255
-5.996625 42.920822 15.453480 -0.640177 0.000000 0.768228 255 255 255
-5.561414 4.201156 15.800582 -0.606588 0.000000 0.795017 255 255 255
-5.561414 42.920822 15.800582 -0.606588 0.000000 0.795017 255 255 255
-5.111696 4.201156 16.128670 -0.571879 0.000000 0.820338 255 255 255
-5.111696 42.920822 16.128670 -0.571879 0.000000 0.820338 255 255 255
-4.648300 4.201156 16.437138 -0.536115 0.000000 0.844145 255 255 255
-4.648300 42.920822 16.437138 -0.536115 0.000000 0.844145 255 255 255
-4.172082 4.201156 16.725416 -0.499361 0.000000 0.866394 255 255 255
-4.172082 42.920822 16.725416 -0.499361 0.000000 0.866394 255 255 255
-3.683921 4.201156 16.992973 -0.461685 0.000000 0.887044 255 255 255
-3.683921 42.920822 16.992973 -0.461685 0.000000 0.887044 255 255 255
-3.184718 4.201156 17.239315 -0.423157 0.000000 0.906056 255 255 255
-3.184718 42.920822 17.239315 -0.423157 0.000000 0.906056 255 255 255
-2.675394 4.201156 17.463987 -0.383848 0.000000 0.923396 255 255 255
-2.675394 42.920822 17.463987 -0.383848 0.000000 0.923396 255 255 255
-2.156890 4.201156 17.666574 -0.343830 0.000000 0.939032 255 255 255
-2.156890 42.920822 17.666574 -0.343830 0.000000 0.939032 255 255 255
-1.630162 4.201156 17.846704 -0.303178 0.000000 0.952934 255 255 255
-1.630162 42.920822 17.846704 -0.303178 0.000000 0.952934 255 255 255
-1.096184 4.201156 18.004042 -0.261966 0.000000 0.965077 255 255 255
-1.096184 42.920822 18.004042 -0.261966 0.000000 0.965077 255 255 255
-0.555940 4.201156 18.138298 -0.220271 0.000000 0.975439 255 255 255
-0.555940 42.920822 18.138298 -0.220271 0.000000 0.975439 255 255 255
-0.010428 4.201156 18.249224 -0.178169 0.000000 0.984000 255 255 255
-0.010428 42.920822 18.249224 -0.178169 0.000000 0.984000 255 255 255
0.539346 4.201156 18.336617 -0.135738 0.000000 0.990745 255 255 255
0.539346 42.920822 18.336617 -0.135738 0.000000 0.990745 255 255 255
1.092365 4.201156 18.400312 -0.093057 0.000000 0.995661 255 255 255
1.092365 42.920822 18.400312 -0.093057 0.000000 0.995661 255 255 255
1.647611 4.201156 18.440197 -0.050204 0.000000 0.998739 255 255 255
1.647611 42.920822 18.440197 -0.050204 0.000000 0.998739 255 255 255
2.204057 4.201156 18.456194 -0.007258 0.000000 0.999974 255 255 255
2.204057 42.920822 18.456194 -0.007258 0.000000 0.999974 255 255 255
2.760676 4.201156 18.448277 0.035701 -0.000000 0.999363 255 255 255
2.760676 42.920822 18.448277 0.035701 -0.000000 0.999363 255 255 255
4 0 2 3 1
4 2 4 5 3
4 4 6 7 5
4 6 8 9 7
4 8 10 11 9
4 10 12 13 11
4 12 14 15 13
4 14 16 17 15
4 16 18 19 17
4 18 20 21 19
4 20 22 23 21
4 22 24 25 23
4 24 26 27 25
4 26 28 29 27
4 28 30 31 29
4 30 32 33 31
4 32 34 35 33
4 34 36 37 35
4 36 38 39 37
4 38 40 41 39
4 40 42 43 41
4 42 44 45 43
4 44 46 47 45
4 46 48 49 47
4 48 50 51 49
4 50 52 53 51
4 52 54 55 53
4 54 56 57 55
4 58 60 61 59
4 62 64 65 63
4 66 68 69 67
4 70 72 73 71
4 72 74 75 73
4 74 76 77 75
4 76 78 79 77
4 78 80 81 79
4 80 82 83 81
4 82 84 85 83
4 84 86 87 85
4 86 88 89 87
4 88 90 91 89
4 90 92 93 91
4 92 94 95 93
4 94 96 97 95
4 96 98 99 97
4 98 100 101 99
4 100 102 103 101
4 102 104 105 103
4 104 106 107 105
4 106 108 109 107
4 108 110 111 109
4 110 112 113 111
4 112 114 115 113
4 114 116 117 115
4 116 118 119 117
4 118 120 121 119
4 120 122 123 121
4 122 124 125 123
4 124 126 127 125
0 0 0 0 255 255 255 0 0 0 0 0 255 255 255 0 0.000000 0.000000
